<?xml version="1.0" encoding="UTF-8" standalone="no"?>
<!DOCTYPE svg PUBLIC "-//W3C//DTD SVG 1.1//EN" "http://www.w3.org/Graphics/SVG/1.1/DTD/svg11.dtd">
<svg width="100%" height="100%" viewBox="0 0 32 32" version="1.1" xmlns="http://www.w3.org/2000/svg" xmlns:xlink="http://www.w3.org/1999/xlink" xml:space="preserve" xmlns:serif="http://www.serif.com/" style="fill-rule:evenodd;clip-rule:evenodd;stroke-linejoin:round;stroke-miterlimit:2;">
    <path d="M32,5.44L32,26.56C32,29.562 29.562,32 26.56,32L5.44,32C2.438,32 0,29.562 0,26.56L0,5.44C0,2.438 2.438,0 5.44,0L26.56,0C29.562,0 32,2.438 32,5.44Z" style="fill:#fff;"/>
    <path d="M10.65,6.37C10.677,6.425 10.764,6.669 10.857,6.909C10.944,7.148 11.036,7.393 11.063,7.452C11.112,7.566 11.226,7.92 11.226,7.947C11.226,7.991 10.971,7.963 10.688,7.887C10.52,7.844 9.905,7.708 9.324,7.588C8.742,7.474 8.155,7.349 8.019,7.322C7.883,7.289 7.682,7.251 7.562,7.229L7.355,7.191L7.394,7.376C7.415,7.479 7.513,7.806 7.611,8.105C7.709,8.404 7.807,8.719 7.828,8.806L7.861,8.964L7.029,8.926C6.573,8.904 6.029,8.866 5.817,8.839C5.61,8.812 5.246,8.79 5.018,8.784L4.594,8.784L4.599,9.013C4.599,9.143 4.626,9.382 4.653,9.545C4.724,9.986 4.806,10.53 4.893,11.177C4.936,11.492 4.996,11.932 5.029,12.155C5.061,12.378 5.121,12.818 5.164,13.134C5.208,13.449 5.289,14.036 5.349,14.439C5.409,14.841 5.496,15.477 5.545,15.852C5.675,16.869 5.616,16.798 6.382,16.76C7.143,16.722 7.404,16.641 7.448,16.412C7.464,16.331 7.502,16.173 7.529,16.07C7.557,15.966 7.682,15.461 7.807,14.955C8.155,13.514 8.171,13.46 8.329,13.4C8.427,13.362 8.655,13.389 9.182,13.493C9.574,13.574 10.09,13.667 10.329,13.71C11.08,13.835 11.172,13.851 11.205,13.9C11.226,13.938 10.188,14.651 9.867,14.808C9.677,14.906 9.454,15.08 9.487,15.107C9.514,15.129 10.183,14.966 11.743,14.547C11.835,14.526 12.472,14.341 13.157,14.14C13.847,13.938 14.532,13.737 14.679,13.694C15.011,13.601 15.326,13.618 15.348,13.732C15.353,13.775 15.168,14.107 14.934,14.466C14.374,15.319 14.043,15.907 14.124,15.907C14.233,15.907 14.907,15.716 15.576,15.499C15.918,15.39 16.288,15.276 16.391,15.243C16.495,15.216 16.826,15.107 17.125,15.01C17.424,14.912 18.294,14.629 19.056,14.384C19.817,14.14 20.73,13.846 21.089,13.726C21.442,13.612 21.79,13.514 21.861,13.514C22.062,13.514 22.116,13.639 22.454,14.819C22.492,14.955 22.562,15.211 22.617,15.39C23.008,16.776 22.932,16.695 23.889,16.749C24.389,16.776 24.628,16.766 24.677,16.728C24.721,16.689 24.764,16.488 24.786,16.216C24.829,15.629 25.02,14.053 25.232,12.427C25.476,10.611 25.482,10.78 25.134,10.823C24.976,10.845 24.759,10.878 24.655,10.905C24.552,10.926 24.297,10.964 24.095,10.981C23.758,11.013 23.715,11.008 23.617,10.894C23.519,10.785 22.97,9.866 22.551,9.111C22.475,8.975 22.394,8.844 22.367,8.817C22.345,8.79 22.106,8.725 21.845,8.676C21.584,8.621 21.181,8.54 20.958,8.485C20.268,8.328 19.594,8.181 19.083,8.078C18.963,8.056 18.572,7.969 18.213,7.893C17.854,7.811 17.267,7.686 16.908,7.61C16.326,7.49 14.929,7.18 14.353,7.045C14.233,7.017 13.891,6.941 13.592,6.876C13.292,6.811 12.901,6.724 12.722,6.686C11.58,6.419 11.167,6.332 10.879,6.3C10.634,6.273 10.612,6.278 10.65,6.37Z" style="fill:#171717;fill-rule:nonzero;"/>
    <path d="M15.2,19.659C15.181,19.658 15.167,19.658 15.146,19.658C14.656,19.658 14.58,19.756 14.45,20.528C14.156,22.317 13.781,23.002 12.857,23.453C12.346,23.698 12.139,23.757 11.313,23.872C9.975,24.056 8.415,23.91 7.643,23.518C6.942,23.159 6.599,22.627 6.382,21.561C6.282,21.074 6.185,20.631 6.063,20.311C6.003,20.152 5.936,20.023 5.861,19.934C5.813,19.878 5.763,19.838 5.707,19.816C5.289,19.647 5.24,19.522 5.213,18.505C5.191,17.717 5.191,17.712 5.316,17.63C5.387,17.587 5.691,17.51 5.99,17.462C6.289,17.413 6.681,17.347 6.86,17.32C7.039,17.293 7.567,17.233 8.029,17.19C10.242,16.972 10.758,16.956 11.661,17.048C12.732,17.162 13.243,17.315 14.173,17.788C14.455,17.935 14.504,17.94 15.2,17.94C15.896,17.94 15.946,17.935 16.228,17.788C17.158,17.315 17.669,17.162 18.74,17.048C19.643,16.956 20.159,16.972 22.372,17.19C22.834,17.233 23.362,17.293 23.541,17.32C23.72,17.347 24.112,17.413 24.411,17.462C24.71,17.51 25.014,17.587 25.085,17.63C25.21,17.712 25.21,17.717 25.188,18.505C25.161,19.522 25.112,19.647 24.694,19.816C24.638,19.838 24.588,19.878 24.54,19.934C24.465,20.023 24.398,20.152 24.338,20.311C24.216,20.631 24.119,21.074 24.019,21.561C23.802,22.627 23.459,23.159 22.758,23.518C21.986,23.91 20.426,24.056 19.088,23.872C18.262,23.757 18.055,23.698 17.544,23.453C16.62,23.002 16.245,22.317 15.951,20.528C15.821,19.756 15.745,19.658 15.255,19.658C15.234,19.658 15.219,19.658 15.2,19.659ZM21.056,18.081C20.36,18.011 19.034,18.022 18.457,18.108C17.093,18.315 16.892,18.538 16.951,19.788C17.011,21.137 17.37,22.175 17.87,22.485C18.468,22.849 20.279,23.04 21.306,22.844C22.068,22.697 22.459,22.523 22.655,22.257C22.894,21.92 22.932,21.816 23.128,20.854C23.22,20.408 23.307,19.185 23.264,18.853C23.204,18.348 23.024,18.288 21.056,18.081ZM9.345,18.081C7.377,18.288 7.197,18.348 7.137,18.853C7.094,19.185 7.181,20.408 7.273,20.854C7.469,21.816 7.507,21.92 7.746,22.257C7.942,22.523 8.333,22.697 9.095,22.844C10.122,23.04 11.933,22.849 12.531,22.485C13.031,22.175 13.39,21.137 13.449,19.788C13.509,18.538 13.308,18.315 11.943,18.108C11.367,18.022 10.041,18.011 9.345,18.081Z" style="fill:#171717;"/>
    <path d="M12.174,19.807L12.174,21.298C12.174,21.558 11.963,21.769 11.703,21.769L10.783,21.769C10.523,21.769 10.312,21.558 10.312,21.298L10.312,19.807C10.312,19.547 10.523,19.335 10.783,19.335L11.703,19.335C11.963,19.335 12.174,19.547 12.174,19.807Z" style="fill:#171717;"/>
    <path d="M20.116,19.811L20.116,21.303C20.116,21.563 19.904,21.774 19.644,21.774L18.725,21.774C18.465,21.774 18.253,21.563 18.253,21.303L18.253,19.811C18.253,19.551 18.465,19.34 18.725,19.34L19.644,19.34C19.904,19.34 20.116,19.551 20.116,19.811Z" style="fill:#171717;"/>
</svg>
