<?xml version="1.0" encoding="UTF-8" standalone="no"?>
<!DOCTYPE svg PUBLIC "-//W3C//DTD SVG 1.1//EN" "http://www.w3.org/Graphics/SVG/1.1/DTD/svg11.dtd">
<svg width="100%" height="100%" viewBox="0 0 192 192" version="1.1" xmlns="http://www.w3.org/2000/svg" xmlns:xlink="http://www.w3.org/1999/xlink" xml:space="preserve" xmlns:serif="http://www.serif.com/" style="fill-rule:evenodd;clip-rule:evenodd;stroke-linejoin:round;stroke-miterlimit:2;">
    <path d="M192,32.64L192,159.36C192,177.375 177.375,192 159.36,192L32.64,192C14.625,192 0,177.375 0,159.36L0,32.64C0,14.625 14.625,0 32.64,0L159.36,0C177.375,0 192,14.625 192,32.64Z" style="fill:#fff;"/>
    <path d="M63.901,38.222C64.064,38.548 64.586,40.016 65.141,41.452C65.663,42.887 66.217,44.355 66.38,44.714C66.674,45.399 67.359,47.519 67.359,47.682C67.359,47.943 65.826,47.78 64.13,47.324C63.118,47.063 59.432,46.247 55.942,45.529C52.451,44.844 48.928,44.094 48.113,43.931C47.297,43.735 46.09,43.507 45.372,43.376L44.133,43.148L44.361,44.257C44.492,44.877 45.079,46.834 45.666,48.628C46.253,50.423 46.84,52.315 46.971,52.836L47.167,53.782L42.176,53.554C39.435,53.424 36.173,53.195 34.901,53.032C33.661,52.869 31.476,52.739 30.106,52.706L27.561,52.706L27.594,54.076C27.594,54.859 27.757,56.294 27.92,57.273C28.344,59.915 28.834,63.177 29.356,67.059C29.616,68.951 29.975,71.594 30.171,72.931C30.367,74.268 30.726,76.911 30.987,78.803C31.248,80.695 31.737,84.218 32.096,86.632C32.455,89.046 32.976,92.862 33.27,95.113C34.053,101.213 33.694,100.789 38.294,100.561C42.861,100.333 44.426,99.843 44.687,98.473C44.785,97.984 45.014,97.038 45.177,96.418C45.34,95.798 46.09,92.765 46.84,89.731C48.928,81.086 49.026,80.76 49.972,80.401C50.559,80.173 51.929,80.336 55.093,80.956C57.442,81.445 60.541,82 61.977,82.261C66.478,83.011 67.033,83.109 67.229,83.402C67.359,83.631 61.128,87.904 59.204,88.85C58.062,89.437 56.725,90.481 56.92,90.644C57.083,90.775 61.096,89.796 70.458,87.284C71.013,87.154 74.829,86.045 78.939,84.838C83.082,83.631 87.193,82.424 88.073,82.163C90.063,81.608 91.955,81.706 92.086,82.391C92.118,82.652 91.009,84.642 89.607,86.795C86.247,91.916 84.257,95.439 84.746,95.439C85.398,95.439 89.443,94.298 93.456,92.993C95.511,92.34 97.729,91.655 98.349,91.46C98.969,91.297 100.959,90.644 102.753,90.057C104.547,89.47 109.766,87.774 114.333,86.306C118.9,84.838 124.381,83.076 126.533,82.358C128.654,81.673 130.742,81.086 131.166,81.086C132.373,81.086 132.699,81.837 134.721,88.915C134.95,89.731 135.374,91.264 135.7,92.34C138.049,100.659 137.592,100.17 143.333,100.496C146.334,100.659 147.77,100.594 148.063,100.365C148.324,100.137 148.585,98.93 148.716,97.299C148.977,93.776 150.118,84.316 151.391,74.562C152.859,63.667 152.891,64.678 150.804,64.939C149.858,65.069 148.553,65.265 147.933,65.428C147.313,65.559 145.78,65.787 144.573,65.885C142.55,66.081 142.289,66.048 141.702,65.363C141.115,64.711 137.82,59.198 135.309,54.663C134.852,53.848 134.363,53.065 134.199,52.902C134.069,52.739 132.634,52.347 131.068,52.054C129.502,51.727 127.088,51.238 125.751,50.912C121.608,49.966 117.563,49.085 114.496,48.465C113.779,48.335 111.43,47.813 109.277,47.356C107.124,46.867 103.601,46.117 101.448,45.66C97.957,44.942 89.574,43.083 86.116,42.267C85.398,42.104 83.343,41.647 81.549,41.256C79.755,40.865 77.406,40.343 76.33,40.114C69.479,38.516 67,37.994 65.271,37.798C63.803,37.635 63.673,37.668 63.901,38.222Z" style="fill:#171717;fill-rule:nonzero;"/>
    <path d="M91.202,117.952C91.087,117.949 90.999,117.948 90.874,117.948C87.939,117.948 87.482,118.535 86.699,123.167C84.937,133.9 82.687,138.01 77.141,140.717C74.075,142.185 72.835,142.544 67.877,143.229C59.852,144.338 50.49,143.458 45.857,141.109C41.649,138.956 39.594,135.759 38.289,129.365C37.694,126.441 37.108,123.787 36.378,121.866C36.015,120.913 35.617,120.141 35.164,119.606C34.881,119.271 34.576,119.029 34.244,118.894C31.733,117.883 31.439,117.132 31.276,111.032C31.145,106.302 31.145,106.27 31.896,105.78C32.32,105.519 34.147,105.063 35.941,104.769C37.735,104.476 40.084,104.084 41.16,103.921C42.237,103.758 45.401,103.399 48.174,103.138C61.45,101.833 64.549,101.735 69.964,102.29C76.391,102.975 79.457,103.888 85.035,106.726C86.732,107.607 87.025,107.64 91.2,107.64C95.376,107.64 95.674,107.607 97.37,106.726C102.949,103.888 106.015,102.975 112.441,102.29C117.856,101.735 120.955,101.833 134.232,103.138C137.005,103.399 140.169,103.758 141.246,103.921C142.322,104.084 144.671,104.476 146.465,104.769C148.259,105.063 150.086,105.519 150.51,105.78C151.26,106.27 151.26,106.302 151.13,111.032C150.967,117.132 150.673,117.883 148.161,118.894C147.83,119.029 147.525,119.271 147.241,119.606C146.789,120.141 146.39,120.913 146.028,121.866C145.298,123.787 144.712,126.441 144.116,129.365C142.811,135.759 140.756,138.956 136.548,141.109C131.916,143.458 122.554,144.338 114.529,143.229C109.571,142.544 108.331,142.185 105.265,140.717C99.719,138.01 97.468,133.9 95.707,123.167C94.924,118.535 94.467,117.948 91.531,117.948C91.406,117.948 91.316,117.949 91.202,117.952ZM126.338,108.488C122.162,108.064 114.203,108.129 110.745,108.651C102.557,109.891 101.35,111.228 101.709,118.731C102.068,126.821 104.221,133.052 107.222,134.911C110.81,137.097 121.673,138.238 127.838,137.064C132.405,136.183 134.754,135.139 135.928,133.541C137.364,131.518 137.592,130.899 138.766,125.125C139.321,122.45 139.843,115.11 139.582,113.12C139.223,110.086 138.147,109.727 126.338,108.488ZM56.068,108.488C44.259,109.727 43.183,110.086 42.824,113.12C42.563,115.11 43.085,122.45 43.639,125.125C44.814,130.899 45.042,131.518 46.477,133.541C47.652,135.139 50,136.183 54.567,137.064C60.733,138.238 71.595,137.097 75.184,134.911C78.185,133.052 80.338,126.821 80.697,118.731C81.056,111.228 79.849,109.891 71.661,108.651C68.203,108.129 60.243,108.064 56.068,108.488Z" style="fill:#171717;"/>
    <path d="M73.045,118.84L73.045,127.788C73.045,129.349 71.777,130.616 70.216,130.616L64.699,130.616C63.138,130.616 61.871,129.349 61.871,127.788L61.871,118.84C61.871,117.279 63.138,116.012 64.699,116.012L70.216,116.012C71.777,116.012 73.045,117.279 73.045,118.84Z" style="fill:#171717;"/>
    <path d="M120.694,118.868L120.694,127.815C120.694,129.376 119.427,130.644 117.866,130.644L112.349,130.644C110.788,130.644 109.52,129.376 109.52,127.815L109.52,118.868C109.52,117.307 110.788,116.039 112.349,116.039L117.866,116.039C119.427,116.039 120.694,117.307 120.694,118.868Z" style="fill:#171717;"/>
</svg>
