<?xml version="1.0" encoding="UTF-8" standalone="no"?>
<!DOCTYPE svg PUBLIC "-//W3C//DTD SVG 1.1//EN" "http://www.w3.org/Graphics/SVG/1.1/DTD/svg11.dtd">
<svg width="100%" height="100%" viewBox="0 0 48 48" version="1.1" xmlns="http://www.w3.org/2000/svg" xmlns:xlink="http://www.w3.org/1999/xlink" xml:space="preserve" xmlns:serif="http://www.serif.com/" style="fill-rule:evenodd;clip-rule:evenodd;stroke-linejoin:round;stroke-miterlimit:2;">
    <path d="M48,8.16L48,39.84C48,44.344 44.344,48 39.84,48L8.16,48C3.656,48 0,44.344 0,39.84L0,8.16C0,3.656 3.656,0 8.16,0L39.84,0C44.344,0 48,3.656 48,8.16Z" style="fill:#fff;"/>
    <path d="M15.975,9.556C16.016,9.637 16.147,10.004 16.285,10.363C16.416,10.722 16.554,11.089 16.595,11.178C16.668,11.35 16.84,11.88 16.84,11.921C16.84,11.986 16.456,11.945 16.032,11.831C15.78,11.766 14.858,11.562 13.985,11.382C13.113,11.211 12.232,11.024 12.028,10.983C11.824,10.934 11.523,10.877 11.343,10.844L11.033,10.787L11.09,11.064C11.123,11.219 11.27,11.709 11.417,12.157C11.563,12.606 11.71,13.079 11.743,13.209L11.792,13.446L10.544,13.389C9.859,13.356 9.043,13.299 8.725,13.258C8.415,13.217 7.869,13.185 7.526,13.176L6.89,13.176L6.898,13.519C6.898,13.715 6.939,14.074 6.98,14.318C7.086,14.979 7.208,15.794 7.339,16.765C7.404,17.238 7.494,17.898 7.543,18.233C7.592,18.567 7.681,19.228 7.747,19.701C7.812,20.174 7.934,21.054 8.024,21.658C8.114,22.261 8.244,23.216 8.318,23.778C8.513,25.303 8.424,25.197 9.573,25.14C10.715,25.083 11.107,24.961 11.172,24.618C11.196,24.496 11.253,24.259 11.294,24.105C11.335,23.95 11.523,23.191 11.71,22.433C12.232,20.272 12.256,20.19 12.493,20.1C12.64,20.043 12.982,20.084 13.773,20.239C14.361,20.361 15.135,20.5 15.494,20.565C16.62,20.753 16.758,20.777 16.807,20.851C16.84,20.908 15.282,21.976 14.801,22.213C14.516,22.359 14.181,22.62 14.23,22.661C14.271,22.694 15.274,22.449 17.614,21.821C17.753,21.788 18.707,21.511 19.735,21.209C20.771,20.908 21.798,20.606 22.018,20.541C22.516,20.402 22.989,20.427 23.021,20.598C23.03,20.663 22.752,21.16 22.402,21.699C21.562,22.979 21.064,23.86 21.186,23.86C21.35,23.86 22.361,23.574 23.364,23.248C23.878,23.085 24.432,22.914 24.587,22.865C24.742,22.824 25.24,22.661 25.688,22.514C26.137,22.367 27.442,21.943 28.583,21.576C29.725,21.209 31.095,20.769 31.633,20.59C32.163,20.418 32.685,20.272 32.791,20.272C33.093,20.272 33.175,20.459 33.68,22.229C33.737,22.433 33.843,22.816 33.925,23.085C34.512,25.165 34.398,25.042 35.833,25.124C36.584,25.165 36.942,25.148 37.016,25.091C37.081,25.034 37.146,24.732 37.179,24.325C37.244,23.444 37.53,21.079 37.848,18.641C38.215,15.917 38.223,16.169 37.701,16.235C37.464,16.267 37.138,16.316 36.983,16.357C36.828,16.39 36.445,16.447 36.143,16.471C35.638,16.52 35.572,16.512 35.426,16.341C35.279,16.178 34.455,14.799 33.827,13.666C33.713,13.462 33.591,13.266 33.55,13.225C33.517,13.185 33.158,13.087 32.767,13.013C32.375,12.932 31.772,12.81 31.438,12.728C30.402,12.491 29.391,12.271 28.624,12.116C28.445,12.084 27.857,11.953 27.319,11.839C26.781,11.717 25.9,11.529 25.362,11.415C24.489,11.236 22.393,10.771 21.529,10.567C21.35,10.526 20.836,10.412 20.387,10.314C19.939,10.216 19.352,10.086 19.082,10.029C17.37,9.629 16.75,9.498 16.318,9.45C15.951,9.409 15.918,9.417 15.975,9.556Z" style="fill:#171717;fill-rule:nonzero;"/>
    <path d="M22.8,29.488C22.772,29.487 22.75,29.487 22.719,29.487C21.985,29.487 21.87,29.634 21.675,30.792C21.234,33.475 20.672,34.502 19.285,35.179C18.519,35.546 18.209,35.636 16.969,35.807C14.963,36.085 12.622,35.864 11.464,35.277C10.412,34.739 9.899,33.94 9.572,32.341C9.423,31.61 9.277,30.947 9.094,30.467C9.004,30.228 8.904,30.035 8.791,29.901C8.72,29.818 8.644,29.757 8.561,29.723C7.933,29.471 7.86,29.283 7.819,27.758C7.786,26.576 7.786,26.567 7.974,26.445C8.08,26.38 8.537,26.266 8.985,26.192C9.434,26.119 10.021,26.021 10.29,25.98C10.559,25.939 11.35,25.85 12.043,25.785C15.363,25.458 16.137,25.434 17.491,25.572C19.098,25.744 19.864,25.972 21.259,26.682C21.683,26.902 21.756,26.91 22.8,26.91C23.844,26.91 23.919,26.902 24.343,26.682C25.737,25.972 26.504,25.744 28.11,25.572C29.464,25.434 30.239,25.458 33.558,25.785C34.251,25.85 35.042,25.939 35.311,25.98C35.581,26.021 36.168,26.119 36.616,26.192C37.065,26.266 37.521,26.38 37.627,26.445C37.815,26.567 37.815,26.576 37.782,27.758C37.742,29.283 37.668,29.471 37.04,29.723C36.958,29.757 36.881,29.818 36.81,29.901C36.697,30.035 36.598,30.228 36.507,30.467C36.324,30.947 36.178,31.61 36.029,32.341C35.703,33.94 35.189,34.739 34.137,35.277C32.979,35.864 30.638,36.085 28.632,35.807C27.393,35.636 27.083,35.546 26.316,35.179C24.93,34.502 24.367,33.475 23.927,30.792C23.731,29.634 23.617,29.487 22.883,29.487C22.852,29.487 22.829,29.487 22.8,29.488ZM31.584,27.122C30.541,27.016 28.551,27.032 27.686,27.163C25.639,27.473 25.338,27.807 25.427,29.683C25.517,31.705 26.055,33.263 26.805,33.728C27.703,34.274 30.418,34.56 31.96,34.266C33.101,34.046 33.688,33.785 33.982,33.385C34.341,32.88 34.398,32.725 34.692,31.281C34.83,30.612 34.961,28.777 34.895,28.28C34.806,27.522 34.537,27.432 31.584,27.122ZM14.017,27.122C11.065,27.432 10.796,27.522 10.706,28.28C10.641,28.777 10.771,30.612 10.91,31.281C11.203,32.725 11.26,32.88 11.619,33.385C11.913,33.785 12.5,34.046 13.642,34.266C15.183,34.56 17.899,34.274 18.796,33.728C19.546,33.263 20.084,31.705 20.174,29.683C20.264,27.807 19.962,27.473 17.915,27.163C17.051,27.032 15.061,27.016 14.017,27.122Z" style="fill:#171717;"/>
    <path d="M18.261,29.71L18.261,31.947C18.261,32.337 17.944,32.654 17.554,32.654L16.175,32.654C15.785,32.654 15.468,32.337 15.468,31.947L15.468,29.71C15.468,29.32 15.785,29.003 16.175,29.003L17.554,29.003C17.944,29.003 18.261,29.32 18.261,29.71Z" style="fill:#171717;"/>
    <path d="M30.174,29.717L30.174,31.954C30.174,32.344 29.857,32.661 29.466,32.661L28.087,32.661C27.697,32.661 27.38,32.344 27.38,31.954L27.38,29.717C27.38,29.327 27.697,29.01 28.087,29.01L29.466,29.01C29.857,29.01 30.174,29.327 30.174,29.717Z" style="fill:#171717;"/>
</svg>
