<?xml version="1.0" encoding="UTF-8" standalone="no"?>
<!DOCTYPE svg PUBLIC "-//W3C//DTD SVG 1.1//EN" "http://www.w3.org/Graphics/SVG/1.1/DTD/svg11.dtd">
<svg width="100%" height="100%" viewBox="0 0 180 180" version="1.1" xmlns="http://www.w3.org/2000/svg" xmlns:xlink="http://www.w3.org/1999/xlink" xml:space="preserve" xmlns:serif="http://www.serif.com/" style="fill-rule:evenodd;clip-rule:evenodd;stroke-linejoin:round;stroke-miterlimit:2;">
    <path d="M180,30.6L180,149.4C180,166.289 166.289,180 149.4,180L30.6,180C13.711,180 0,166.289 0,149.4L0,30.6C0,13.711 13.711,0 30.6,0L149.4,0C166.289,0 180,13.711 180,30.6Z" style="fill:#fff;"/>
    <path d="M63.402,37.924C63.564,38.247 64.082,39.704 64.632,41.128C65.15,42.552 65.7,44.008 65.862,44.365C66.153,45.044 66.833,47.148 66.833,47.31C66.833,47.569 65.312,47.407 63.629,46.954C62.625,46.695 58.968,45.886 55.505,45.174C52.041,44.494 48.546,43.75 47.737,43.588C46.928,43.394 45.73,43.167 45.018,43.038L43.788,42.811L44.015,43.911C44.144,44.526 44.727,46.468 45.309,48.248C45.892,50.029 46.474,51.906 46.604,52.424L46.798,53.362L41.846,53.136C39.127,53.006 35.891,52.78 34.628,52.618C33.399,52.456 31.23,52.327 29.871,52.294L27.346,52.294L27.378,53.654C27.378,54.43 27.54,55.855 27.702,56.825C28.123,59.447 28.608,62.684 29.126,66.535C29.385,68.413 29.741,71.034 29.935,72.361C30.13,73.688 30.486,76.31 30.744,78.187C31.003,80.064 31.489,83.56 31.845,85.955C32.201,88.35 32.719,92.137 33.01,94.37C33.787,100.423 33.431,100.002 37.995,99.775C42.526,99.549 44.079,99.063 44.338,97.704C44.435,97.218 44.662,96.28 44.824,95.665C44.986,95.05 45.73,92.04 46.474,89.03C48.546,80.453 48.643,80.129 49.582,79.773C50.164,79.547 51.524,79.708 54.663,80.323C56.993,80.809 60.068,81.359 61.492,81.618C65.959,82.362 66.509,82.46 66.703,82.751C66.833,82.977 60.651,87.217 58.741,88.156C57.608,88.739 56.281,89.774 56.476,89.936C56.637,90.066 60.618,89.095 69.908,86.602C70.458,86.473 74.245,85.372 78.323,84.175C82.433,82.977 86.511,81.78 87.385,81.521C89.36,80.971 91.237,81.068 91.366,81.747C91.399,82.006 90.298,83.981 88.907,86.117C85.573,91.198 83.598,94.694 84.084,94.694C84.731,94.694 88.745,93.561 92.726,92.266C94.765,91.619 96.966,90.939 97.581,90.745C98.196,90.583 100.17,89.936 101.95,89.353C103.73,88.771 108.909,87.088 113.44,85.631C117.971,84.175 123.409,82.427 125.545,81.715C127.649,81.035 129.72,80.453 130.141,80.453C131.339,80.453 131.662,81.197 133.669,88.221C133.895,89.03 134.316,90.551 134.64,91.619C136.97,99.873 136.517,99.387 142.214,99.711C145.191,99.873 146.615,99.808 146.907,99.581C147.166,99.355 147.425,98.157 147.554,96.539C147.813,93.043 148.946,83.657 150.208,73.98C151.664,63.169 151.697,64.173 149.625,64.432C148.687,64.561 147.392,64.755 146.777,64.917C146.162,65.047 144.641,65.273 143.443,65.37C141.437,65.564 141.178,65.532 140.595,64.852C140.013,64.205 136.744,58.735 134.252,54.236C133.798,53.427 133.313,52.65 133.151,52.488C133.022,52.327 131.597,51.938 130.044,51.647C128.49,51.323 126.095,50.838 124.768,50.514C120.658,49.575 116.644,48.702 113.602,48.087C112.89,47.957 110.559,47.439 108.423,46.986C106.287,46.501 102.792,45.756 100.655,45.303C97.192,44.591 88.874,42.746 85.443,41.937C84.731,41.775 82.692,41.322 80.912,40.934C79.132,40.545 76.802,40.027 75.733,39.801C68.937,38.215 66.477,37.697 64.761,37.503C63.305,37.341 63.175,37.373 63.402,37.924Z" style="fill:#171717;fill-rule:nonzero;"/>
    <path d="M90.489,117.03C90.376,117.027 90.288,117.027 90.165,117.027C87.252,117.027 86.798,117.609 86.022,122.205C84.274,132.854 82.041,136.932 76.538,139.618C73.496,141.075 72.266,141.431 67.346,142.11C59.384,143.211 50.095,142.337 45.499,140.007C41.324,137.87 39.285,134.698 37.99,128.355C37.399,125.453 36.818,122.82 36.094,120.914C35.734,119.968 35.339,119.202 34.89,118.671C34.608,118.339 34.305,118.099 33.977,117.965C31.485,116.962 31.193,116.217 31.032,110.165C30.902,105.472 30.902,105.439 31.647,104.954C32.067,104.695 33.88,104.242 35.66,103.951C37.44,103.659 39.77,103.271 40.839,103.109C41.907,102.947 45.046,102.591 47.797,102.332C60.97,101.038 64.045,100.941 69.418,101.491C75.794,102.17 78.836,103.077 84.371,105.893C86.054,106.766 86.345,106.799 90.488,106.799C94.631,106.799 94.927,106.766 96.61,105.893C102.144,103.077 105.187,102.17 111.563,101.491C116.936,100.941 120.01,101.038 133.183,102.332C135.935,102.591 139.074,102.947 140.142,103.109C141.21,103.271 143.541,103.659 145.321,103.951C147.101,104.242 148.913,104.695 149.334,104.954C150.079,105.439 150.079,105.472 149.949,110.165C149.787,116.217 149.496,116.962 147.004,117.965C146.675,118.099 146.373,118.339 146.091,118.671C145.642,119.202 145.247,119.968 144.887,120.914C144.162,122.82 143.581,125.453 142.99,128.355C141.696,134.698 139.657,137.87 135.481,140.007C130.885,142.337 121.596,143.211 113.634,142.11C108.715,141.431 107.485,141.075 104.442,139.618C98.94,136.932 96.707,132.854 94.959,122.205C94.182,117.609 93.729,117.027 90.816,117.027C90.692,117.027 90.603,117.027 90.489,117.03ZM125.351,107.64C121.208,107.22 113.311,107.284 109.88,107.802C101.756,109.032 100.558,110.359 100.914,117.803C101.27,125.83 103.407,132.012 106.384,133.857C109.945,136.026 120.722,137.158 126.84,135.993C131.371,135.119 133.701,134.084 134.866,132.498C136.291,130.491 136.517,129.876 137.682,124.147C138.233,121.493 138.75,114.211 138.491,112.236C138.135,109.226 137.067,108.87 125.351,107.64ZM55.63,107.64C43.913,108.87 42.845,109.226 42.489,112.236C42.23,114.211 42.748,121.493 43.298,124.147C44.464,129.876 44.69,130.491 46.114,132.498C47.279,134.084 49.61,135.119 54.141,135.993C60.258,137.158 71.036,136.026 74.596,133.857C77.574,132.012 79.71,125.83 80.066,117.803C80.422,110.359 79.225,109.032 71.101,107.802C67.67,107.284 59.773,107.22 55.63,107.64Z" style="fill:#171717;"/>
    <path d="M72.474,117.912L72.474,126.789C72.474,128.338 71.217,129.596 69.668,129.596L64.194,129.596C62.645,129.596 61.387,128.338 61.387,126.789L61.387,117.912C61.387,116.363 62.645,115.106 64.194,115.106L69.668,115.106C71.217,115.106 72.474,116.363 72.474,117.912Z" style="fill:#171717;"/>
    <path d="M119.751,117.939L119.751,126.817C119.751,128.365 118.494,129.623 116.945,129.623L111.471,129.623C109.922,129.623 108.665,128.365 108.665,126.817L108.665,117.939C108.665,116.39 109.922,115.133 111.471,115.133L116.945,115.133C118.494,115.133 119.751,116.39 119.751,117.939Z" style="fill:#171717;"/>
</svg>
