<?xml version="1.0" encoding="UTF-8" standalone="no"?>
<!DOCTYPE svg PUBLIC "-//W3C//DTD SVG 1.1//EN" "http://www.w3.org/Graphics/SVG/1.1/DTD/svg11.dtd">
<svg width="100%" height="100%" viewBox="0 0 576 576" version="1.1" xmlns="http://www.w3.org/2000/svg" xmlns:xlink="http://www.w3.org/1999/xlink" xml:space="preserve" xmlns:serif="http://www.serif.com/" style="fill-rule:evenodd;clip-rule:evenodd;stroke-linejoin:round;stroke-miterlimit:2;">
    <path d="M575.507,104.736L575.507,470.76C575.507,528.565 528.576,575.495 470.771,575.495L104.736,575.495C46.93,575.495 0,528.565 0,470.76L0,104.736C0,46.93 46.93,0 104.736,0L470.771,0C528.576,0 575.507,46.93 575.507,104.736Z" style="fill:#fff;"/>
    <path d="M239.68,420.968C239.81,421.049 239.937,421.133 240.063,421.219C242.083,422.611 243.557,424.427 244.487,426.664C245.38,428.812 245.828,431.096 245.828,433.518C245.828,437.386 245.087,440.623 243.653,443.24C242.174,445.939 240.009,447.975 237.152,449.341C234.413,450.651 231.076,451.325 227.134,451.325L208.902,451.325C208.074,451.325 207.402,450.654 207.402,449.825L207.402,394.278C207.402,393.45 208.074,392.778 208.902,392.778L225.523,392.778C228.455,392.778 231.071,393.103 233.374,393.743C235.774,394.409 237.813,395.438 239.498,396.813C241.219,398.218 242.533,399.985 243.433,402.118C244.303,404.183 244.752,406.623 244.752,409.442C244.752,411.939 244.262,414.251 243.289,416.381C242.465,418.186 241.264,419.717 239.68,420.968ZM225.542,416.095C227.075,416.095 228.342,415.885 229.332,415.416C230.188,415.012 230.836,414.429 231.26,413.654C231.727,412.8 231.938,411.746 231.938,410.503C231.938,409.066 231.737,407.895 231.275,407.004C230.883,406.247 230.265,405.7 229.436,405.35C228.418,404.92 227.111,404.727 225.523,404.727L220.216,404.727L220.216,416.095L225.542,416.095ZM220.216,426.948L220.216,439.415L227.134,439.415C228.53,439.415 229.683,439.18 230.579,438.649C231.407,438.158 232.022,437.49 232.42,436.639C232.86,435.699 233.069,434.622 233.069,433.413C233.069,432 232.875,430.774 232.461,429.742C232.107,428.859 231.556,428.172 230.795,427.69C229.973,427.17 228.882,426.948 227.539,426.948L220.216,426.948ZM123.66,394.278L123.66,449.825C123.66,450.654 122.989,451.325 122.16,451.325L112.358,451.325C111.796,451.325 111.281,451.011 111.024,450.511L94.715,418.79L94.715,449.825C94.715,450.654 94.043,451.325 93.215,451.325L83.401,451.325C82.573,451.325 81.901,450.654 81.901,449.825L81.901,394.278C81.901,393.45 82.573,392.778 83.401,392.778L93.215,392.778C93.777,392.778 94.291,393.092 94.549,393.592L110.89,425.354L110.89,394.278C110.89,393.45 111.561,392.778 112.39,392.778L122.16,392.778C122.989,392.778 123.66,393.45 123.66,394.278ZM142.625,394.278L142.625,449.825C142.625,450.654 141.953,451.325 141.125,451.325L131.333,451.325C130.505,451.325 129.833,450.654 129.833,449.825L129.833,394.278C129.833,393.45 130.505,392.778 131.333,392.778L141.125,392.778C141.953,392.778 142.625,393.45 142.625,394.278ZM161.025,419.571L161.57,433.993L161.571,434.049L161.571,449.825C161.571,450.654 160.899,451.325 160.071,451.325L150.268,451.325C149.439,451.325 148.768,450.654 148.768,449.825L148.768,394.278C148.768,393.45 149.439,392.778 150.268,392.778L163.077,392.778C163.739,392.778 164.323,393.213 164.514,393.847L175.309,429.842L186.095,393.848C186.285,393.213 186.869,392.778 187.532,392.778L200.363,392.778C201.191,392.778 201.863,393.45 201.863,394.278L201.863,449.825C201.863,450.654 201.191,451.325 200.363,451.325L190.538,451.325C189.709,451.325 189.038,450.654 189.038,449.825L189.038,434.049L189.039,433.993L189.584,419.574L180.072,450.269C179.878,450.897 179.297,451.325 178.64,451.325L171.958,451.325C171.301,451.325 170.72,450.897 170.525,450.269L161.025,419.571ZM282.286,451.325L251.655,451.325C250.827,451.325 250.155,450.654 250.155,449.825L250.155,394.278C250.155,393.45 250.827,392.778 251.655,392.778L261.469,392.778C262.297,392.778 262.969,393.45 262.969,394.278L262.969,439.415L282.286,439.415C283.114,439.415 283.786,440.086 283.786,440.915L283.786,449.825C283.786,450.654 283.114,451.325 282.286,451.325ZM319.846,451.325L287.886,451.325C287.057,451.325 286.386,450.654 286.386,449.825L286.386,394.278C286.386,393.45 287.057,392.778 287.886,392.778L319.807,392.778C320.635,392.778 321.307,393.45 321.307,394.278L321.307,403.227C321.307,404.055 320.635,404.727 319.807,404.727L299.199,404.727L299.199,415.42L316.554,415.42C317.383,415.42 318.054,416.091 318.054,416.92L318.054,425.597C318.054,426.426 317.383,427.097 316.554,427.097L299.199,427.097L299.199,439.415L319.846,439.415C320.674,439.415 321.346,440.086 321.346,440.915L321.346,449.825C321.346,450.654 320.674,451.325 319.846,451.325ZM365.816,394.278L365.816,449.825C365.816,450.654 365.145,451.325 364.316,451.325L354.514,451.325C353.952,451.325 353.437,451.011 353.18,450.511L336.871,418.79L336.871,449.825C336.871,450.654 336.199,451.325 335.371,451.325L325.557,451.325C324.729,451.325 324.057,450.654 324.057,449.825L324.057,394.278C324.057,393.45 324.729,392.778 325.557,392.778L335.371,392.778C335.933,392.778 336.448,393.092 336.705,393.592L353.046,425.354L353.046,394.278C353.046,393.45 353.717,392.778 354.546,392.778L364.316,392.778C365.145,392.778 365.816,393.45 365.816,394.278ZM404.792,451.325L372.832,451.325C372.004,451.325 371.332,450.654 371.332,449.825L371.332,394.278C371.332,393.45 372.004,392.778 372.832,392.778L404.753,392.778C405.582,392.778 406.253,393.45 406.253,394.278L406.253,403.227C406.253,404.055 405.582,404.727 404.753,404.727L384.146,404.727L384.146,415.42L401.501,415.42C402.329,415.42 403.001,416.091 403.001,416.92L403.001,425.597C403.001,426.426 402.329,427.097 401.501,427.097L384.146,427.097L384.146,439.415L404.792,439.415C405.621,439.415 406.292,440.086 406.292,440.915L406.292,449.825C406.292,450.654 405.621,451.325 404.792,451.325ZM421.817,430.781L421.817,449.825C421.817,450.654 421.146,451.325 420.317,451.325L410.504,451.325C409.675,451.325 409.004,450.654 409.004,449.825L409.004,394.278C409.004,393.45 409.675,392.778 410.504,392.778L428.285,392.778C432.174,392.778 435.522,393.475 438.335,394.835C441.248,396.244 443.487,398.328 445.054,401.084C446.585,403.774 447.374,407.085 447.374,411.027C447.374,414.222 446.897,416.957 445.973,419.238C445.022,421.583 443.682,423.531 441.962,425.089C441.128,425.844 440.223,426.523 439.247,427.126L449.012,448.671C449.1,448.865 449.145,449.076 449.145,449.29L449.145,449.825C449.145,450.654 448.474,451.325 447.645,451.325L437.14,451.325C436.545,451.325 436.006,450.973 435.767,450.428L427.144,430.781L421.817,430.781ZM421.817,418.844L428.348,418.844C429.746,418.844 430.913,418.584 431.835,418.005C432.721,417.448 433.385,416.668 433.837,415.673C434.334,414.577 434.571,413.302 434.571,411.855C434.571,410.315 434.337,408.982 433.841,407.861C433.4,406.864 432.74,406.093 431.85,405.555C430.905,404.984 429.712,404.727 428.285,404.727L421.817,404.727L421.817,418.844ZM468.057,451.325L453.42,451.325C452.591,451.325 451.92,450.654 451.92,449.825L451.92,394.278C451.92,393.45 452.591,392.778 453.42,392.778L468.135,392.778C471.562,392.778 474.699,393.46 477.548,394.813C480.399,396.166 482.867,398.1 484.95,400.62C487.002,403.103 488.592,406.055 489.709,409.48C490.809,412.854 491.364,416.609 491.364,420.747L491.364,423.394C491.364,427.514 490.809,431.264 489.709,434.647C488.592,438.083 487.001,441.034 484.948,443.506C482.866,446.011 480.393,447.938 477.532,449.291C474.674,450.643 471.517,451.325 468.057,451.325ZM464.733,404.727L464.733,439.415L468.057,439.415C470.264,439.415 472.128,438.853 473.635,437.683C475.184,436.481 476.337,434.711 477.137,432.403C477.999,429.922 478.417,426.917 478.417,423.394L478.417,420.671C478.417,417.967 478.177,415.58 477.687,413.51C477.219,411.539 476.542,409.878 475.635,408.538C474.786,407.283 473.743,406.33 472.495,405.69C471.229,405.04 469.774,404.727 468.135,404.727L464.733,404.727Z" style="fill:#171717;"/>
    <path d="M221.611,481.551L221.611,493.239C221.611,493.355 221.57,493.468 221.496,493.558C221.016,494.136 220.276,494.765 219.27,495.44C218.279,496.104 217.001,496.678 215.434,497.155C213.882,497.628 212.005,497.868 209.801,497.868C207.828,497.868 206.03,497.541 204.409,496.89C202.774,496.234 201.367,495.27 200.189,493.998C199.016,492.731 198.111,491.183 197.476,489.351C196.85,487.54 196.534,485.472 196.534,483.146L196.534,481.296C196.534,478.972 196.838,476.904 197.442,475.093C198.054,473.258 198.929,471.709 200.063,470.444C201.203,469.17 202.565,468.202 204.147,467.541C205.718,466.884 207.468,466.553 209.397,466.553C212.056,466.553 214.234,466.993 215.936,467.854C217.668,468.731 218.992,469.941 219.91,471.481C220.817,473 221.38,474.745 221.594,476.719C221.61,476.86 221.564,477.001 221.469,477.107C221.375,477.213 221.239,477.273 221.097,477.273L215.212,477.273C214.964,477.273 214.754,477.091 214.717,476.846C214.579,475.909 214.317,475.092 213.925,474.396C213.553,473.735 213.022,473.221 212.333,472.853C211.619,472.471 210.694,472.29 209.562,472.29C208.632,472.29 207.803,472.474 207.076,472.847C206.356,473.218 205.753,473.767 205.265,474.493C204.756,475.248 204.373,476.182 204.108,477.293C203.835,478.437 203.7,479.758 203.7,481.256L203.7,483.146C203.7,484.645 203.843,485.968 204.132,487.114C204.412,488.227 204.823,489.162 205.372,489.916C205.903,490.647 206.564,491.2 207.356,491.572C208.163,491.952 209.095,492.137 210.151,492.137C211.063,492.137 211.825,492.063 212.437,491.908C213.026,491.759 213.504,491.579 213.868,491.36C214.141,491.197 214.365,491.041 214.54,490.891L214.54,486.377L209.491,486.377C209.215,486.377 208.991,486.153 208.991,485.877L208.991,481.551C208.991,481.275 209.215,481.051 209.491,481.051L221.111,481.051C221.387,481.051 221.611,481.275 221.611,481.551ZM242.695,491.242L240.768,497.119C240.7,497.324 240.509,497.463 240.293,497.463L233.832,497.463C233.668,497.463 233.515,497.383 233.422,497.248C233.328,497.114 233.307,496.942 233.364,496.789L244.331,467.298C244.403,467.102 244.59,466.972 244.799,466.972L250.446,466.972C250.654,466.972 250.841,467.101 250.914,467.297L261.935,496.788C261.993,496.941 261.971,497.113 261.878,497.248C261.784,497.383 261.631,497.463 261.467,497.463L254.986,497.463C254.77,497.463 254.578,497.324 254.511,497.119L252.578,491.242L242.695,491.242ZM247.631,476.197L244.582,485.491L250.687,485.491L247.631,476.197ZM280.623,478.156L281.082,488.565L281.083,488.587L281.083,496.963C281.083,497.239 280.859,497.463 280.583,497.463L274.512,497.463C274.236,497.463 274.012,497.239 274.012,496.963L274.012,467.472C274.012,467.196 274.236,466.972 274.512,466.972L282.444,466.972C282.657,466.972 282.846,467.106 282.916,467.307L290.02,487.612L297.117,467.307C297.187,467.106 297.377,466.972 297.589,466.972L305.535,466.972C305.811,466.972 306.035,467.196 306.035,467.472L306.035,496.963C306.035,497.239 305.811,497.463 305.535,497.463L299.451,497.463C299.174,497.463 298.951,497.239 298.951,496.963L298.951,488.587L298.951,488.565L299.41,478.161L292.553,497.133C292.481,497.331 292.293,497.463 292.082,497.463L287.945,497.463C287.734,497.463 287.546,497.331 287.474,497.133L280.623,478.156ZM340.933,497.463L321.14,497.463C320.864,497.463 320.64,497.239 320.64,496.963L320.64,467.472C320.64,467.196 320.864,466.972 321.14,466.972L340.909,466.972C341.185,466.972 341.409,467.196 341.409,467.472L341.409,472.223C341.409,472.499 341.185,472.723 340.909,472.723L327.718,472.723L327.718,478.993L338.894,478.993C339.171,478.993 339.394,479.217 339.394,479.493L339.394,484.1C339.394,484.376 339.171,484.6 338.894,484.6L327.718,484.6L327.718,491.732L340.933,491.732C341.209,491.732 341.433,491.956 341.433,492.232L341.433,496.963C341.433,497.239 341.209,497.463 340.933,497.463ZM369.648,489.248C369.648,488.781 369.581,488.361 369.441,487.989C369.309,487.637 369.066,487.316 368.722,487.018C368.335,486.683 367.787,486.356 367.083,486.029C366.342,485.686 365.385,485.33 364.211,484.96L364.209,484.96C362.841,484.521 361.552,484.027 360.342,483.477C359.109,482.916 358.023,482.263 357.083,481.519C356.117,480.754 355.36,479.862 354.81,478.844C354.254,477.815 353.971,476.623 353.971,475.266C353.971,473.949 354.261,472.754 354.835,471.679C355.406,470.611 356.21,469.691 357.248,468.923C358.268,468.167 359.472,467.583 360.862,467.174C362.234,466.77 363.743,466.567 365.39,466.567C367.651,466.567 369.621,466.976 371.302,467.786C373.009,468.608 374.333,469.742 375.278,471.182C376.228,472.628 376.706,474.281 376.706,476.144C376.706,476.42 376.482,476.644 376.206,476.644L370.162,476.644C369.886,476.644 369.662,476.42 369.662,476.144C369.662,475.374 369.506,474.692 369.185,474.101C368.873,473.525 368.401,473.076 367.774,472.746C367.115,472.4 366.282,472.236 365.28,472.236C364.31,472.236 363.5,472.375 362.852,472.668C362.245,472.943 361.785,473.306 361.481,473.769C361.183,474.225 361.035,474.733 361.035,475.294C361.035,475.699 361.136,476.064 361.34,476.391C361.563,476.746 361.895,477.074 362.33,477.381C362.801,477.713 363.385,478.024 364.082,478.318C364.801,478.622 365.632,478.916 366.573,479.203C368.202,479.702 369.638,480.26 370.88,480.874C372.146,481.501 373.208,482.21 374.066,482.998C374.946,483.806 375.609,484.723 376.058,485.747C376.505,486.768 376.732,487.921 376.732,489.208C376.732,490.576 376.46,491.796 375.923,492.871C375.383,493.949 374.612,494.864 373.606,495.615C372.618,496.352 371.437,496.915 370.06,497.299C368.707,497.677 367.197,497.868 365.531,497.868C364.022,497.868 362.538,497.671 361.078,497.277C359.605,496.879 358.27,496.27 357.073,495.45C355.858,494.618 354.888,493.562 354.163,492.28C353.436,490.995 353.067,489.479 353.067,487.729C353.067,487.453 353.291,487.229 353.567,487.229L359.652,487.229C359.928,487.229 360.152,487.453 360.152,487.729C360.152,488.561 360.275,489.268 360.532,489.848C360.777,490.402 361.126,490.853 361.582,491.197C362.052,491.553 362.613,491.809 363.262,491.968C363.946,492.137 364.702,492.22 365.531,492.22C366.501,492.22 367.301,492.089 367.928,491.812C368.507,491.556 368.943,491.211 369.227,490.765C369.509,490.32 369.648,489.814 369.648,489.248Z" style="fill:#171717;"/>
    <path d="M212.45,84.367C212.889,85.247 214.297,89.206 215.793,93.077C217.201,96.948 218.696,100.908 219.136,101.875C219.928,103.723 221.775,109.442 221.775,109.882C221.775,110.585 217.64,110.145 213.065,108.914C210.338,108.21 200.396,106.01 190.982,104.075C181.569,102.227 172.067,100.204 169.867,99.764C167.668,99.236 164.412,98.62 162.477,98.268L159.134,97.652L159.749,100.644C160.101,102.315 161.685,107.594 163.269,112.433C164.852,117.272 166.436,122.375 166.788,123.782L167.316,126.334L153.855,125.718C146.464,125.366 137.666,124.75 134.235,124.31C130.892,123.87 124.997,123.518 121.302,123.43L114.44,123.43L114.528,127.126C114.528,129.237 114.968,133.108 115.407,135.748C116.551,142.874 117.871,151.672 119.279,162.142C119.982,167.245 120.95,174.371 121.478,177.978C122.006,181.585 122.974,188.712 123.678,193.815C124.381,198.917 125.701,208.419 126.669,214.93C127.637,221.44 129.044,231.734 129.836,237.805C131.948,254.257 130.98,253.113 143.385,252.497C155.702,251.881 159.925,250.562 160.629,246.867C160.893,245.547 161.509,242.996 161.949,241.324C162.389,239.652 164.412,231.47 166.436,223.288C172.067,199.973 172.331,199.093 174.882,198.126C176.466,197.51 180.161,197.95 188.695,199.621C195.03,200.941 203.388,202.437 207.259,203.14C219.4,205.164 220.896,205.428 221.424,206.22C221.775,206.836 204.971,218.361 199.78,220.912C196.701,222.496 193.094,225.311 193.622,225.751C194.062,226.103 204.883,223.464 230.134,216.689C231.629,216.338 241.923,213.346 253.008,210.091C264.182,206.836 275.267,203.58 277.643,202.877C283.01,201.381 288.113,201.645 288.464,203.492C288.552,204.196 285.561,209.563 281.778,215.37C272.716,229.183 267.349,238.684 268.669,238.684C270.429,238.684 281.338,235.605 292.16,232.086C297.702,230.326 303.685,228.479 305.357,227.951C307.028,227.511 312.395,225.751 317.234,224.168C322.073,222.584 336.15,218.009 348.467,214.05C360.784,210.091 375.565,205.34 381.372,203.404C387.09,201.557 392.721,199.973 393.865,199.973C397.12,199.973 398,201.997 403.455,221.088C404.07,223.288 405.214,227.423 406.094,230.326C412.429,252.761 411.197,251.442 426.681,252.321C434.775,252.761 438.647,252.585 439.438,251.969C440.142,251.354 440.846,248.098 441.198,243.699C441.902,234.197 444.981,208.683 448.412,182.377C452.372,152.992 452.459,155.719 446.829,156.423C444.277,156.775 440.758,157.303 439.086,157.743C437.415,158.095 433.28,158.71 430.025,158.974C424.57,159.502 423.866,159.414 422.282,157.567C420.699,155.807 411.813,140.939 405.038,128.709C403.806,126.51 402.487,124.398 402.047,123.958C401.695,123.518 397.824,122.463 393.601,121.671C389.378,120.791 382.867,119.471 379.26,118.592C368.086,116.04 357.177,113.665 348.907,111.993C346.971,111.641 340.637,110.233 334.83,109.002C329.023,107.682 319.521,105.658 313.715,104.427C304.301,102.491 281.69,97.476 272.364,95.277C270.429,94.837 264.886,93.605 260.047,92.549C255.208,91.494 248.873,90.086 245.97,89.47C227.494,85.159 220.808,83.751 216.145,83.224C212.186,82.784 211.834,82.872 212.45,84.367Z" style="fill:#171717;fill-rule:nonzero;"/>
    <path d="M286.081,299.401C285.772,299.393 285.534,299.391 285.198,299.391C277.279,299.391 276.048,300.974 273.936,313.468C269.185,342.413 263.115,353.499 248.158,360.801C239.888,364.76 236.545,365.728 223.172,367.575C201.529,370.567 176.278,368.191 163.785,361.857C152.436,356.05 146.893,347.428 143.374,330.184C141.767,322.297 140.188,315.138 138.218,309.959C137.24,307.388 136.166,305.304 134.945,303.862C134.18,302.958 133.357,302.306 132.464,301.942C125.69,299.215 124.898,297.191 124.458,280.739C124.106,267.982 124.106,267.894 126.13,266.574C127.273,265.87 132.2,264.639 137.039,263.847C141.878,263.055 148.213,261.999 151.116,261.559C154.019,261.119 162.553,260.152 170.032,259.448C205.84,255.929 214.198,255.665 228.802,257.16C246.134,259.008 254.405,261.471 269.449,269.126C274.024,271.501 274.814,271.589 286.076,271.589C297.337,271.589 298.142,271.501 302.717,269.126C317.762,261.471 326.032,259.008 343.364,257.16C357.969,255.665 366.327,255.929 402.135,259.448C409.613,260.152 418.147,261.119 421.051,261.559C423.954,261.999 430.288,263.055 435.127,263.847C439.966,264.639 444.893,265.87 446.037,266.574C448.06,267.894 448.06,267.982 447.709,280.739C447.269,297.191 446.477,299.215 439.702,301.942C438.809,302.306 437.986,302.958 437.221,303.862C436,305.304 434.926,307.388 433.949,309.959C431.979,315.138 430.399,322.297 428.793,330.184C425.274,347.428 419.731,356.05 408.381,361.857C395.888,368.191 370.638,370.567 348.995,367.575C335.622,365.728 332.279,364.76 324.008,360.801C309.052,353.499 302.981,342.413 298.23,313.468C296.119,300.974 294.887,299.391 286.969,299.391C286.632,299.391 286.389,299.393 286.081,299.401ZM380.844,273.877C369.582,272.733 348.115,272.909 338.789,274.316C316.706,277.66 313.451,281.267 314.419,301.502C315.386,323.321 321.193,340.126 329.287,345.14C338.965,351.035 368.262,354.114 384.891,350.947C397.208,348.572 403.543,345.756 406.71,341.445C410.581,335.991 411.197,334.319 414.364,318.746C415.86,311.532 417.267,291.737 416.564,286.37C415.596,278.188 412.692,277.22 380.844,273.877ZM191.323,273.877C159.474,277.22 156.571,278.188 155.603,286.37C154.899,291.737 156.307,311.532 157.802,318.746C160.97,334.319 161.586,335.991 165.457,341.445C168.624,345.756 174.959,348.572 187.276,350.947C203.904,354.114 233.201,351.035 242.879,345.14C250.973,340.126 256.78,323.321 257.748,301.502C258.716,281.267 255.46,277.66 233.377,274.316C224.051,272.909 202.584,272.733 191.323,273.877Z" style="fill:#171717;"/>
    <rect x="121.478" y="480.819" width="55.623" height="5.04" style="fill:#171717;"/>
    <rect x="396.165" y="480.819" width="55.623" height="5.04" style="fill:#171717;"/>
    <path d="M237.11,301.798L237.11,325.929C237.11,330.139 233.692,333.558 229.482,333.558L214.602,333.558C210.391,333.558 206.973,330.139 206.973,325.929L206.973,301.798C206.973,297.588 210.391,294.169 214.602,294.169L229.482,294.169C233.692,294.169 237.11,297.588 237.11,301.798Z" style="fill:#171717;"/>
    <path d="M365.623,301.871L365.623,326.003C365.623,330.213 362.205,333.631 357.994,333.631L343.115,333.631C338.904,333.631 335.486,330.213 335.486,326.003L335.486,301.871C335.486,297.661 338.904,294.243 343.115,294.243L357.994,294.243C362.205,294.243 365.623,297.661 365.623,301.871Z" style="fill:#171717;"/>
    <path d="M554.959,107.938L554.959,467.558C554.959,515.789 515.8,554.948 467.568,554.948L107.938,554.948C59.706,554.948 20.548,515.789 20.548,467.558L20.548,107.938C20.548,59.706 59.706,20.548 107.938,20.548L467.568,20.548C515.8,20.548 554.959,59.706 554.959,107.938ZM534.959,107.938C534.959,70.744 504.762,40.548 467.568,40.548L107.938,40.548C70.745,40.548 40.548,70.744 40.548,107.938L40.548,467.558C40.548,504.751 70.745,534.948 107.938,534.948L467.568,534.948C504.762,534.948 534.959,504.751 534.959,467.558L534.959,107.938Z" style="fill:#171717;"/>
</svg>
