<?xml version="1.0" encoding="UTF-8" standalone="no"?>
<!DOCTYPE svg PUBLIC "-//W3C//DTD SVG 1.1//EN" "http://www.w3.org/Graphics/SVG/1.1/DTD/svg11.dtd">
<svg width="100%" height="100%" viewBox="0 0 57 51" version="1.1" xmlns="http://www.w3.org/2000/svg" xmlns:xlink="http://www.w3.org/1999/xlink" xml:space="preserve" xmlns:serif="http://www.serif.com/" style="fill-rule:evenodd;clip-rule:evenodd;stroke-linejoin:round;stroke-miterlimit:2;">
    <g transform="matrix(1,0,0,1,-5009.72,-5722.32)">
        <g>
            <g transform="matrix(0.301196,0,0,0.301196,3710.48,3615.71)">
                <rect x="4349.97" y="7093.64" width="35.265" height="12.489" style="fill:rgb(19,19,19);"/>
            </g>
            <g transform="matrix(0.301196,0,0,0.301196,3733.92,3615.71)">
                <rect x="4349.97" y="7093.64" width="35.265" height="12.489" style="fill:rgb(19,19,19);"/>
            </g>
            <g transform="matrix(0.301196,0,0,0.301196,3309.34,3596.39)">
                <path d="M5665.42,7190.34L5657.79,7190.34L5657.79,7178.36L5665.91,7178.36C5667.15,7174.49 5670.78,7171.68 5675.07,7171.68L5725.01,7171.68C5729.29,7171.68 5732.93,7174.49 5734.17,7178.36L5744.56,7178.36C5745.8,7174.49 5749.44,7171.68 5753.72,7171.68L5803.66,7171.68C5807.94,7171.68 5811.58,7174.49 5812.82,7178.36L5819.14,7178.36L5819.14,7190.34L5813.25,7190.34L5813.25,7193.76C5813.27,7194.1 5813.28,7194.44 5813.28,7194.78L5813.28,7206.52C5813.28,7217.15 5804.65,7225.77 5794.03,7225.77L5763.36,7225.77C5752.73,7225.77 5744.1,7217.15 5744.1,7206.52L5744.1,7196.78L5744.07,7196.78L5744.07,7190.34L5734.6,7190.34L5734.6,7193.76C5734.61,7194.1 5734.62,7194.44 5734.62,7194.78L5734.62,7206.52C5734.62,7217.15 5726,7225.77 5715.37,7225.77L5684.7,7225.77C5674.08,7225.77 5665.45,7217.15 5665.45,7206.52L5665.45,7196.78L5665.42,7196.78L5665.42,7190.34ZM5756.11,7204.95C5756.11,7209.63 5759.87,7213.43 5764.5,7213.43L5792.88,7213.43C5797.51,7213.43 5801.27,7209.63 5801.27,7204.95L5801.27,7183.74L5756.11,7183.74L5756.11,7204.95ZM5677.46,7204.95C5677.46,7209.63 5681.22,7213.43 5685.85,7213.43L5714.22,7213.43C5718.85,7213.43 5722.61,7209.63 5722.61,7204.95L5722.61,7183.74L5677.46,7183.74L5677.46,7204.95Z" style="fill:rgb(19,19,19);"/>
            </g>
            <g transform="matrix(0.223926,0,0,0.223926,-1634.99,4468.39)">
                <path d="M29687.6,5744.62L29673.7,5690.93C29673.7,5690.93 29676.1,5671.33 29701.3,5671.96C29701.3,5671.96 29696.8,5663.28 29687.9,5663.07C29687.9,5663.07 29694.6,5654.26 29710,5662.8C29710,5662.8 29700.4,5635.14 29737.1,5626.56L29732.3,5648.08C29732.3,5648.08 29755.9,5616.42 29823.9,5599.72C29823.9,5599.72 29810.4,5614.11 29807.8,5628C29807.8,5628 29873.5,5626.11 29913,5601.06C29913,5601.06 29911.4,5636.64 29879.1,5664.49C29879.1,5664.49 29909.3,5663.81 29924,5657.38L29903.4,5744.67L29886.6,5744.67C29886.6,5744.67 29886.3,5723.83 29882.4,5718.43L29840.8,5694.7C29840.8,5694.7 29842.1,5705.14 29854.7,5714.95C29854.7,5714.95 29783.8,5705.75 29754.5,5687.06C29754.5,5687.06 29754.7,5697.02 29773.2,5711.67C29773.2,5711.67 29755.8,5716.65 29732.2,5701.98C29732.2,5701.98 29711.9,5714.46 29709.9,5719.07C29709.9,5719.07 29704.5,5732.42 29705.7,5744.41L29687.6,5744.62Z" style="fill:rgb(19,19,19);"/>
            </g>
            <g transform="matrix(0.153546,0,0,0.153546,4357.65,4665.59)">
                <path d="M4352.67,7143.53C4362.04,7143.53 4369.65,7151.14 4369.65,7160.52C4369.65,7169.89 4362.04,7177.49 4352.67,7177.49C4343.3,7177.49 4335.69,7169.89 4335.69,7160.52C4335.69,7151.14 4343.3,7143.53 4352.67,7143.53ZM4356.36,7146.51C4354.32,7146.51 4352.67,7148.16 4352.67,7150.2C4352.67,7152.23 4354.32,7153.89 4356.36,7153.89C4358.39,7153.89 4360.05,7152.23 4360.05,7150.2C4360.05,7148.16 4358.39,7146.51 4356.36,7146.51ZM4360.05,7153.89C4359.07,7153.89 4358.28,7154.68 4358.28,7155.65C4358.28,7156.62 4359.07,7157.41 4360.05,7157.41C4361.02,7157.41 4361.81,7156.62 4361.81,7155.65C4361.81,7154.68 4361.02,7153.89 4360.05,7153.89Z" style="fill:rgb(19,19,19);"/>
            </g>
            <g transform="matrix(0.153546,0,0,0.153546,4381.31,4665.59)">
                <path d="M4352.67,7143.53C4362.04,7143.53 4369.65,7151.14 4369.65,7160.52C4369.65,7169.89 4362.04,7177.49 4352.67,7177.49C4343.3,7177.49 4335.69,7169.89 4335.69,7160.52C4335.69,7151.14 4343.3,7143.53 4352.67,7143.53ZM4356.36,7146.51C4354.32,7146.51 4352.67,7148.16 4352.67,7150.2C4352.67,7152.23 4354.32,7153.89 4356.36,7153.89C4358.39,7153.89 4360.05,7152.23 4360.05,7150.2C4360.05,7148.16 4358.39,7146.51 4356.36,7146.51ZM4360.05,7153.89C4359.07,7153.89 4358.28,7154.68 4358.28,7155.65C4358.28,7156.62 4359.07,7157.41 4360.05,7157.41C4361.02,7157.41 4361.81,7156.62 4361.81,7155.65C4361.81,7154.68 4361.02,7153.89 4360.05,7153.89Z" style="fill:rgb(19,19,19);"/>
            </g>
        </g>
    </g>
</svg>
