<?xml version="1.0" encoding="UTF-8" standalone="no"?>
<!DOCTYPE svg PUBLIC "-//W3C//DTD SVG 1.1//EN" "http://www.w3.org/Graphics/SVG/1.1/DTD/svg11.dtd">
<svg width="100%" height="100%" viewBox="0 0 519 515" version="1.1" xmlns="http://www.w3.org/2000/svg" xmlns:xlink="http://www.w3.org/1999/xlink" xml:space="preserve" xmlns:serif="http://www.serif.com/" style="fill-rule:evenodd;clip-rule:evenodd;stroke-linejoin:round;stroke-miterlimit:2;">
    <path d="M518.701,85.3L518.701,429.09C518.701,476.168 480.479,514.39 433.401,514.39L85.3,514.39C38.222,514.39 0,476.168 0,429.09L0,85.3C0,38.222 38.222,0 85.3,0L433.401,0C480.479,0 518.701,38.222 518.701,85.3Z" style="fill:#fff;"/>
    <path d="M212.398,387.841C212.528,387.922 212.655,388.006 212.78,388.092C214.801,389.484 216.275,391.3 217.205,393.537C218.097,395.685 218.546,397.969 218.546,400.391C218.546,404.259 217.805,407.496 216.371,410.113C214.891,412.812 212.726,414.848 209.87,416.214C207.13,417.524 203.793,418.198 199.851,418.198L181.62,418.198C180.791,418.198 180.12,417.526 180.12,416.698L180.12,361.151C180.12,360.323 180.791,359.651 181.62,359.651L198.24,359.651C201.172,359.651 203.789,359.976 206.091,360.616C208.492,361.282 210.531,362.311 212.215,363.686C213.937,365.091 215.251,366.858 216.15,368.991C217.021,371.056 217.47,373.496 217.47,376.315C217.47,378.812 216.979,381.124 216.007,383.254C215.183,385.059 213.982,386.59 212.398,387.841ZM198.259,382.968C199.793,382.968 201.059,382.758 202.05,382.289C202.906,381.885 203.553,381.302 203.978,380.527C204.445,379.673 204.656,378.619 204.656,377.376C204.656,375.939 204.455,374.768 203.993,373.877C203.6,373.12 202.983,372.573 202.154,372.223C201.136,371.793 199.829,371.6 198.24,371.6L192.933,371.6L192.933,382.968L198.259,382.968ZM192.933,393.821L192.933,406.288L199.851,406.288C201.248,406.288 202.401,406.053 203.296,405.522C204.124,405.031 204.74,404.363 205.138,403.512C205.578,402.572 205.787,401.495 205.787,400.286C205.787,398.872 205.593,397.647 205.179,396.615C204.825,395.732 204.274,395.045 203.513,394.563C202.691,394.043 201.6,393.821 200.256,393.821L192.933,393.821ZM96.378,361.151L96.378,416.698C96.378,417.526 95.706,418.198 94.878,418.198L85.075,418.198C84.513,418.198 83.998,417.884 83.741,417.384L67.432,385.663L67.432,416.698C67.432,417.526 66.761,418.198 65.932,418.198L56.119,418.198C55.29,418.198 54.619,417.526 54.619,416.698L54.619,361.151C54.619,360.323 55.29,359.651 56.119,359.651L65.932,359.651C66.494,359.651 67.009,359.965 67.266,360.465L83.607,392.227L83.607,361.151C83.607,360.323 84.279,359.651 85.107,359.651L94.878,359.651C95.706,359.651 96.378,360.323 96.378,361.151ZM115.342,361.151L115.342,416.698C115.342,417.526 114.671,418.198 113.842,418.198L104.051,418.198C103.222,418.198 102.551,417.526 102.551,416.698L102.551,361.151C102.551,360.323 103.222,359.651 104.051,359.651L113.842,359.651C114.671,359.651 115.342,360.323 115.342,361.151ZM133.742,386.444L134.287,400.866L134.288,400.922L134.288,416.698C134.288,417.526 133.617,418.198 132.788,418.198L122.985,418.198C122.157,418.198 121.485,417.526 121.485,416.698L121.485,361.151C121.485,360.323 122.157,359.651 122.985,359.651L135.794,359.651C136.457,359.651 137.041,360.086 137.231,360.72L148.027,396.715L158.812,360.721C159.003,360.086 159.587,359.651 160.249,359.651L173.08,359.651C173.909,359.651 174.58,360.323 174.58,361.151L174.58,416.698C174.58,417.526 173.909,418.198 173.08,418.198L163.255,418.198C162.427,418.198 161.755,417.526 161.755,416.698L161.755,400.922L161.756,400.866L162.301,386.447L152.79,417.142C152.595,417.77 152.014,418.198 151.357,418.198L144.676,418.198C144.018,418.198 143.437,417.77 143.243,417.142L133.742,386.444ZM255.004,418.198L224.373,418.198C223.544,418.198 222.873,417.526 222.873,416.698L222.873,361.151C222.873,360.323 223.544,359.651 224.373,359.651L234.186,359.651C235.015,359.651 235.686,360.323 235.686,361.151L235.686,406.288L255.004,406.288C255.832,406.288 256.504,406.959 256.504,407.788L256.504,416.698C256.504,417.526 255.832,418.198 255.004,418.198ZM292.563,418.198L260.603,418.198C259.775,418.198 259.103,417.526 259.103,416.698L259.103,361.151C259.103,360.323 259.775,359.651 260.603,359.651L292.525,359.651C293.353,359.651 294.025,360.323 294.025,361.151L294.025,370.1C294.025,370.928 293.353,371.6 292.525,371.6L271.917,371.6L271.917,382.293L289.272,382.293C290.1,382.293 290.772,382.964 290.772,383.793L290.772,392.47C290.772,393.299 290.1,393.97 289.272,393.97L271.917,393.97L271.917,406.288L292.563,406.288C293.392,406.288 294.063,406.959 294.063,407.788L294.063,416.698C294.063,417.526 293.392,418.198 292.563,418.198ZM338.534,361.151L338.534,416.698C338.534,417.526 337.862,418.198 337.034,418.198L327.232,418.198C326.67,418.198 326.155,417.884 325.898,417.384L309.589,385.663L309.589,416.698C309.589,417.526 308.917,418.198 308.089,418.198L298.275,418.198C297.447,418.198 296.775,417.526 296.775,416.698L296.775,361.151C296.775,360.323 297.447,359.651 298.275,359.651L308.089,359.651C308.65,359.651 309.165,359.965 309.422,360.465L325.763,392.227L325.763,361.151C325.763,360.323 326.435,359.651 327.263,359.651L337.034,359.651C337.862,359.651 338.534,360.323 338.534,361.151ZM377.51,418.198L345.55,418.198C344.721,418.198 344.05,417.526 344.05,416.698L344.05,361.151C344.05,360.323 344.721,359.651 345.55,359.651L377.471,359.651C378.299,359.651 378.971,360.323 378.971,361.151L378.971,370.1C378.971,370.928 378.299,371.6 377.471,371.6L356.863,371.6L356.863,382.293L374.218,382.293C375.047,382.293 375.718,382.964 375.718,383.793L375.718,392.47C375.718,393.299 375.047,393.97 374.218,393.97L356.863,393.97L356.863,406.288L377.51,406.288C378.338,406.288 379.01,406.959 379.01,407.788L379.01,416.698C379.01,417.526 378.338,418.198 377.51,418.198ZM394.535,397.654L394.535,416.698C394.535,417.526 393.863,418.198 393.035,418.198L383.221,418.198C382.393,418.198 381.721,417.526 381.721,416.698L381.721,361.151C381.721,360.323 382.393,359.651 383.221,359.651L401.003,359.651C404.891,359.651 408.239,360.348 411.053,361.708C413.966,363.117 416.204,365.201 417.772,367.957C419.303,370.647 420.092,373.958 420.092,377.9C420.092,381.095 419.615,383.83 418.69,386.111C417.74,388.456 416.399,390.404 414.679,391.962C413.846,392.717 412.941,393.396 411.965,393.999L421.729,415.544C421.817,415.738 421.863,415.949 421.863,416.163L421.863,416.698C421.863,417.526 421.191,418.198 420.363,418.198L409.858,418.198C409.263,418.198 408.724,417.846 408.484,417.301L399.862,397.654L394.535,397.654ZM394.535,385.717L401.066,385.717C402.464,385.717 403.63,385.457 404.552,384.878C405.438,384.321 406.103,383.541 406.555,382.546C407.052,381.449 407.288,380.175 407.288,378.728C407.288,377.188 407.055,375.855 406.559,374.734C406.118,373.737 405.457,372.966 404.568,372.428C403.622,371.857 402.43,371.6 401.003,371.6L394.535,371.6L394.535,385.717ZM440.774,418.198L426.137,418.198C425.309,418.198 424.637,417.526 424.637,416.698L424.637,361.151C424.637,360.323 425.309,359.651 426.137,359.651L440.853,359.651C444.28,359.651 447.416,360.333 450.265,361.686C453.117,363.039 455.585,364.973 457.667,367.493C459.72,369.976 461.309,372.928 462.426,376.353C463.526,379.727 464.082,383.482 464.082,387.62L464.082,390.267C464.082,394.387 463.527,398.137 462.427,401.52C461.309,404.956 459.718,407.907 457.665,410.379C455.584,412.884 453.111,414.811 450.25,416.164C447.392,417.516 444.234,418.198 440.774,418.198ZM437.451,371.6L437.451,406.288L440.774,406.288C442.981,406.288 444.845,405.726 446.353,404.556C447.902,403.354 449.054,401.584 449.855,399.276C450.716,396.795 451.135,393.79 451.135,390.267L451.135,387.544C451.135,384.84 450.894,382.453 450.404,380.383C449.937,378.412 449.26,376.751 448.353,375.411C447.503,374.156 446.46,373.203 445.213,372.563C443.947,371.913 442.492,371.6 440.853,371.6L437.451,371.6Z" style="fill:#171717;"/>
    <path d="M194.175,445.633L194.175,457.321C194.175,457.438 194.134,457.551 194.06,457.64C193.58,458.218 192.84,458.848 191.834,459.522C190.842,460.186 189.565,460.76 187.998,461.238C186.446,461.711 184.568,461.951 182.365,461.951C180.391,461.951 178.594,461.623 176.973,460.973C175.338,460.317 173.931,459.352 172.753,458.08C171.58,456.814 170.674,455.266 170.04,453.433C169.413,451.623 169.097,449.555 169.097,447.229L169.097,445.379C169.097,443.054 169.402,440.987 170.006,439.176C170.618,437.341 171.493,435.792 172.626,434.526C173.767,433.252 175.128,432.285 176.711,431.623C178.282,430.966 180.032,430.636 181.961,430.636C184.62,430.636 186.798,431.075 188.5,431.937C190.232,432.813 191.555,434.024 192.474,435.563C193.38,437.082 193.943,438.828 194.158,440.801C194.173,440.943 194.128,441.084 194.033,441.189C193.938,441.295 193.803,441.356 193.661,441.356L187.776,441.356C187.528,441.356 187.317,441.174 187.281,440.929C187.143,439.992 186.881,439.175 186.489,438.479C186.117,437.818 185.585,437.304 184.897,436.936C184.182,436.554 183.257,436.373 182.126,436.373C181.195,436.373 180.366,436.556 179.64,436.93C178.92,437.3 178.317,437.85 177.828,438.575C177.32,439.33 176.937,440.265 176.671,441.376C176.399,442.519 176.264,443.84 176.264,445.338L176.264,447.229C176.264,448.728 176.407,450.051 176.695,451.197C176.976,452.309 177.387,453.244 177.935,453.999C178.467,454.73 179.128,455.282 179.92,455.655C180.727,456.034 181.659,456.22 182.715,456.22C183.627,456.22 184.389,456.145 185,455.99C185.589,455.841 186.067,455.661 186.432,455.443C186.705,455.279 186.929,455.124 187.104,454.973L187.104,450.46L182.054,450.46C181.778,450.46 181.554,450.236 181.554,449.96L181.554,445.633C181.554,445.357 181.778,445.133 182.054,445.133L193.675,445.133C193.951,445.133 194.175,445.357 194.175,445.633ZM215.259,455.324L213.331,461.201C213.264,461.407 213.072,461.545 212.856,461.545L206.396,461.545C206.232,461.545 206.079,461.465 205.985,461.331C205.892,461.196 205.87,461.025 205.927,460.871L216.894,431.38C216.967,431.184 217.154,431.054 217.363,431.054L223.009,431.054C223.218,431.054 223.405,431.184 223.478,431.379L234.499,460.87C234.556,461.024 234.535,461.196 234.441,461.33C234.348,461.465 234.194,461.545 234.03,461.545L227.55,461.545C227.334,461.545 227.142,461.407 227.075,461.202L225.142,455.324L215.259,455.324ZM220.194,440.28L217.146,449.573L223.251,449.573L220.194,440.28ZM253.187,442.238L253.646,452.648L253.647,452.67L253.647,461.045C253.647,461.322 253.423,461.545 253.147,461.545L247.076,461.545C246.799,461.545 246.576,461.322 246.576,461.045L246.576,431.554C246.576,431.278 246.799,431.054 247.076,431.054L255.008,431.054C255.221,431.054 255.41,431.189 255.48,431.389L262.584,451.694L269.681,431.389C269.751,431.189 269.94,431.054 270.153,431.054L278.099,431.054C278.375,431.054 278.599,431.278 278.599,431.554L278.599,461.045C278.599,461.322 278.375,461.545 278.099,461.545L272.014,461.545C271.738,461.545 271.514,461.322 271.514,461.045L271.514,452.67L271.515,452.648L271.974,442.243L265.116,461.215C265.045,461.413 264.857,461.545 264.646,461.545L260.508,461.545C260.298,461.545 260.11,461.413 260.038,461.215L253.187,442.238ZM313.497,461.545L293.704,461.545C293.428,461.545 293.204,461.322 293.204,461.045L293.204,431.554C293.204,431.278 293.428,431.054 293.704,431.054L313.473,431.054C313.749,431.054 313.973,431.278 313.973,431.554L313.973,436.305C313.973,436.582 313.749,436.805 313.473,436.805L300.282,436.805L300.282,443.075L311.458,443.075C311.734,443.075 311.958,443.299 311.958,443.575L311.958,448.182C311.958,448.459 311.734,448.682 311.458,448.682L300.282,448.682L300.282,455.815L313.497,455.815C313.773,455.815 313.997,456.039 313.997,456.315L313.997,461.045C313.997,461.322 313.773,461.545 313.497,461.545ZM342.211,453.331C342.211,452.863 342.144,452.443 342.005,452.072C341.873,451.72 341.63,451.398 341.285,451.1C340.899,450.766 340.351,450.438 339.646,450.112C338.906,449.769 337.948,449.413 336.775,449.043L336.772,449.042C335.404,448.604 334.115,448.109 332.905,447.559C331.673,446.999 330.587,446.346 329.647,445.601C328.681,444.837 327.924,443.944 327.373,442.926C326.818,441.898 326.535,440.706 326.535,439.349C326.535,438.032 326.825,436.836 327.399,435.761C327.97,434.693 328.773,433.774 329.811,433.005C330.832,432.25 332.036,431.666 333.426,431.257C334.798,430.853 336.307,430.649 337.953,430.649C340.215,430.649 342.185,431.059 343.866,431.869C345.573,432.691 346.896,433.824 347.842,435.264C348.792,436.711 349.269,438.364 349.269,440.226C349.269,440.502 349.046,440.726 348.769,440.726L342.726,440.726C342.45,440.726 342.226,440.502 342.226,440.226C342.226,439.456 342.07,438.774 341.749,438.183C341.437,437.608 340.965,437.158 340.337,436.829C339.679,436.483 338.846,436.318 337.844,436.318C336.874,436.318 336.064,436.458 335.416,436.751C334.809,437.025 334.349,437.388 334.045,437.852C333.747,438.307 333.599,438.816 333.599,439.377C333.599,439.781 333.699,440.147 333.904,440.473C334.127,440.829 334.459,441.157 334.894,441.463C335.365,441.795 335.949,442.107 336.645,442.4C337.365,442.704 338.196,442.999 339.136,443.285C340.766,443.785 342.202,444.343 343.444,444.957C344.71,445.584 345.772,446.293 346.63,447.081C347.51,447.889 348.173,448.806 348.621,449.829C349.069,450.851 349.296,452.004 349.296,453.29C349.296,454.658 349.024,455.879 348.486,456.953C347.947,458.032 347.175,458.947 346.169,459.697C345.182,460.434 344.001,460.997 342.624,461.382C341.27,461.76 339.761,461.951 338.095,461.951C336.586,461.951 335.102,461.753 333.642,461.359C332.168,460.962 330.834,460.352 329.637,459.533C328.422,458.701 327.451,457.644 326.726,456.362C326,455.078 325.631,453.562 325.631,451.812C325.631,451.536 325.855,451.312 326.131,451.312L332.216,451.312C332.492,451.312 332.716,451.536 332.716,451.812C332.716,452.644 332.838,453.351 333.095,453.931C333.341,454.485 333.69,454.936 334.145,455.28C334.616,455.636 335.177,455.891 335.826,456.051C336.51,456.219 337.266,456.302 338.095,456.302C339.065,456.302 339.865,456.171 340.491,455.894C341.07,455.638 341.507,455.293 341.79,454.847C342.073,454.402 342.211,453.896 342.211,453.331Z" style="fill:#171717;"/>
    <path d="M187.84,53.815C188.28,54.694 189.688,58.653 191.184,62.525C192.591,66.396 194.087,70.355 194.527,71.323C195.319,73.17 197.166,78.889 197.166,79.329C197.166,80.033 193.031,79.593 188.456,78.361C185.729,77.657 175.787,75.458 166.373,73.522C156.959,71.675 147.457,69.651 145.258,69.211C143.058,68.683 139.803,68.067 137.868,67.715L134.524,67.1L135.14,70.091C135.492,71.763 137.076,77.041 138.659,81.88C140.243,86.719 141.827,91.822 142.179,93.23L142.706,95.781L129.246,95.165C121.855,94.813 113.057,94.197 109.626,93.758C106.283,93.318 100.388,92.966 96.693,92.878L89.83,92.878L89.918,96.573C89.918,98.684 90.358,102.556 90.798,105.195C91.942,112.321 93.262,121.119 94.669,131.589C95.373,136.692 96.341,143.818 96.869,147.425C97.397,151.033 98.364,158.159 99.068,163.262C99.772,168.365 101.092,177.867 102.06,184.377C103.027,190.888 104.435,201.181 105.227,207.252C107.338,223.704 106.371,222.561 118.776,221.945C131.093,221.329 135.316,220.009 136.02,216.314C136.284,214.994 136.9,212.443 137.34,210.771C137.78,209.1 139.803,200.917 141.827,192.735C147.457,169.421 147.721,168.541 150.273,167.573C151.856,166.957 155.552,167.397 164.086,169.069C170.42,170.388 178.778,171.884 182.649,172.588C194.791,174.611 196.286,174.875 196.814,175.667C197.166,176.283 180.362,187.808 175.171,190.36C172.092,191.943 168.485,194.759 169.013,195.199C169.452,195.551 180.274,192.911 205.524,186.137C207.02,185.785 217.314,182.793 228.399,179.538C239.573,176.283 250.658,173.028 253.034,172.324C258.4,170.828 263.503,171.092 263.855,172.94C263.943,173.644 260.952,179.01 257.169,184.817C248.107,198.63 242.74,208.132 244.06,208.132C245.819,208.132 256.729,205.052 267.55,201.533C273.093,199.774 279.076,197.926 280.747,197.398C282.419,196.958 287.786,195.199 292.625,193.615C297.464,192.031 311.54,187.456 323.858,183.497C336.175,179.538 350.956,174.787 356.762,172.852C362.481,171.004 368.112,169.421 369.255,169.421C372.511,169.421 373.39,171.444 378.845,190.536C379.461,192.735 380.605,196.87 381.485,199.774C387.819,222.209 386.588,220.889 402.072,221.769C410.166,222.209 414.037,222.033 414.829,221.417C415.533,220.801 416.237,217.546 416.589,213.147C417.293,203.645 420.372,178.131 423.803,151.824C427.762,122.439 427.85,125.166 422.219,125.87C419.668,126.222 416.149,126.75 414.477,127.19C412.806,127.542 408.671,128.158 405.415,128.422C399.961,128.95 399.257,128.862 397.673,127.014C396.089,125.254 387.203,110.386 380.429,98.157C379.197,95.957 377.877,93.846 377.438,93.406C377.086,92.966 373.215,91.91 368.991,91.118C364.768,90.238 358.258,88.919 354.651,88.039C343.477,85.487 332.568,83.112 324.298,81.44C322.362,81.088 316.027,79.681 310.221,78.449C304.414,77.129 294.912,75.106 289.105,73.874C279.692,71.938 257.081,66.924 247.755,64.724C245.819,64.284 240.276,63.052 235.438,61.997C230.599,60.941 224.264,59.533 221.361,58.917C202.885,54.606 196.198,53.199 191.535,52.671C187.576,52.231 187.224,52.319 187.84,53.815Z" style="fill:#171717;fill-rule:nonzero;"/>
    <path d="M261.472,268.848C261.163,268.841 260.925,268.838 260.588,268.838C252.67,268.838 251.438,270.422 249.327,282.915C244.576,311.86 238.505,322.946 223.549,330.248C215.279,334.207 211.935,335.175 198.562,337.023C176.919,340.014 151.669,337.639 139.176,331.304C127.826,325.497 122.284,316.875 118.764,299.631C117.158,291.745 115.578,284.586 113.608,279.406C112.631,276.835 111.557,274.752 110.336,273.309C109.571,272.405 108.748,271.753 107.855,271.39C101.08,268.662 100.289,266.639 99.849,250.186C99.497,237.429 99.497,237.341 101.52,236.021C102.664,235.318 107.591,234.086 112.43,233.294C117.269,232.502 123.603,231.447 126.507,231.007C129.41,230.567 137.944,229.599 145.422,228.895C181.23,225.376 189.588,225.112 204.193,226.608C221.525,228.455 229.795,230.919 244.84,238.573C249.415,240.948 250.205,241.036 261.467,241.036C272.728,241.036 273.533,240.948 278.108,238.573C293.153,230.919 301.423,228.455 318.755,226.608C333.36,225.112 341.718,225.376 377.526,228.895C385.004,229.599 393.538,230.567 396.441,231.007C399.345,231.447 405.679,232.502 410.518,233.294C415.357,234.086 420.284,235.318 421.428,236.021C423.451,237.341 423.451,237.429 423.099,250.186C422.659,266.639 421.868,268.662 415.093,271.39C414.2,271.753 413.377,272.405 412.612,273.309C411.391,274.752 410.317,276.835 409.34,279.406C407.37,284.586 405.79,291.745 404.184,299.631C400.664,316.875 395.122,325.497 383.772,331.304C371.279,337.639 346.029,340.014 324.386,337.023C311.013,335.175 307.669,334.207 299.399,330.248C284.443,322.946 278.372,311.86 273.621,282.915C271.509,270.422 270.278,268.838 262.36,268.838C262.023,268.838 261.78,268.841 261.472,268.848ZM356.234,243.324C344.973,242.18 323.506,242.356 314.18,243.764C292.097,247.107 288.842,250.714 289.809,270.95C290.777,292.769 296.584,309.573 304.678,314.588C314.356,320.482 343.653,323.562 360.281,320.394C372.599,318.019 378.933,315.204 382.101,310.893C385.972,305.438 386.588,303.766 389.755,288.194C391.25,280.979 392.658,261.184 391.954,255.817C390.987,247.635 388.083,246.667 356.234,243.324ZM166.714,243.324C134.865,246.667 131.961,247.635 130.994,255.817C130.29,261.184 131.697,280.979 133.193,288.194C136.36,303.766 136.976,305.438 140.847,310.893C144.015,315.204 150.349,318.019 162.666,320.394C179.295,323.562 208.592,320.482 218.27,314.588C226.364,309.573 232.171,292.769 233.139,270.95C234.106,250.714 230.851,247.107 208.768,243.764C199.442,242.356 177.975,242.18 166.714,243.324Z" style="fill:#171717;"/>
    <rect x="94.042" y="444.901" width="55.623" height="5.04" style="fill:#171717;"/>
    <rect x="368.729" y="444.901" width="55.623" height="5.04" style="fill:#171717;"/>
    <path d="M501.572,97.478L501.572,416.912C501.572,461.336 465.505,497.403 421.08,497.403L97.62,497.403C53.196,497.403 17.129,461.336 17.129,416.912L17.129,97.478C17.129,53.054 53.196,16.987 97.62,16.987L421.08,16.987C465.505,16.987 501.572,53.054 501.572,97.478ZM481.572,97.478C481.572,64.092 454.467,36.987 421.08,36.987L97.62,36.987C64.234,36.987 37.129,64.092 37.129,97.478L37.129,416.912C37.129,450.298 64.234,477.403 97.62,477.403L421.08,477.403C454.467,477.403 481.572,450.298 481.572,416.912L481.572,97.478Z" style="fill:#171717;"/>
    <path d="M212.501,271.245L212.501,295.376C212.501,299.587 209.083,303.005 204.872,303.005L189.993,303.005C185.782,303.005 182.364,299.587 182.364,295.376L182.364,271.245C182.364,267.035 185.782,263.617 189.993,263.617L204.872,263.617C209.083,263.617 212.501,267.035 212.501,271.245Z" style="fill:#171717;"/>
    <path d="M341.014,271.319L341.014,295.45C341.014,299.66 337.596,303.078 333.385,303.078L318.505,303.078C314.295,303.078 310.877,299.66 310.877,295.45L310.877,271.319C310.877,267.108 314.295,263.69 318.505,263.69L333.385,263.69C337.596,263.69 341.014,267.108 341.014,271.319Z" style="fill:#171717;"/>
</svg>
