<?xml version="1.0" encoding="UTF-8" standalone="no"?>
<!DOCTYPE svg PUBLIC "-//W3C//DTD SVG 1.1//EN" "http://www.w3.org/Graphics/SVG/1.1/DTD/svg11.dtd">
<svg width="100%" height="100%" viewBox="0 0 519 515" version="1.1" xmlns="http://www.w3.org/2000/svg" xmlns:xlink="http://www.w3.org/1999/xlink" xml:space="preserve" xmlns:serif="http://www.serif.com/" style="fill-rule:evenodd;clip-rule:evenodd;stroke-linejoin:round;stroke-miterlimit:2;">
    <path d="M518.701,85.3L518.701,429.09C518.701,476.168 480.479,514.39 433.401,514.39L85.3,514.39C38.222,514.39 0,476.168 0,429.09L0,85.3C0,38.222 38.222,0 85.3,0L433.401,0C480.479,0 518.701,38.222 518.701,85.3Z" style="fill:#fff;"/>
    <path d="M92.672,356.436L92.672,411.983L82.87,411.983L63.727,374.75L63.727,411.983L53.913,411.983L53.913,356.436L63.727,356.436L82.902,393.707L82.902,356.436L92.672,356.436ZM111.637,356.436L111.637,411.983L101.845,411.983L101.845,356.436L111.637,356.436ZM129.608,370.425L130.583,396.207L130.583,411.983L120.779,411.983L120.779,356.436L133.589,356.436L145.822,397.223L158.044,356.436L170.875,356.436L170.875,411.983L161.05,411.983L161.05,396.207L162.024,370.443L149.151,411.983L142.47,411.983L129.608,370.425ZM197.646,411.983L179.414,411.983L179.414,356.436L196.035,356.436C198.816,356.436 201.3,356.74 203.484,357.346C205.669,357.953 207.528,358.882 209.061,360.133C210.594,361.384 211.761,362.96 212.563,364.859C213.364,366.759 213.764,369.006 213.764,371.6C213.764,373.872 213.322,375.978 212.437,377.916C211.552,379.855 210.169,381.431 208.289,382.644C207.888,382.903 207.461,383.137 207.008,383.347C208.025,383.644 208.93,384.065 209.723,384.612C211.5,385.836 212.797,387.431 213.614,389.398C214.431,391.365 214.84,393.457 214.84,395.676C214.84,399.255 214.177,402.256 212.85,404.677C211.523,407.098 209.579,408.921 207.017,410.146C204.455,411.371 201.331,411.983 197.646,411.983ZM189.228,387.606L189.228,403.073L197.646,403.073C199.356,403.073 200.76,402.748 201.856,402.097C202.952,401.447 203.764,400.559 204.291,399.433C204.818,398.307 205.081,397.02 205.081,395.571C205.081,393.942 204.843,392.532 204.365,391.342C203.888,390.151 203.136,389.231 202.109,388.581C201.083,387.931 199.73,387.606 198.051,387.606L189.228,387.606ZM196.054,379.753C197.848,379.753 199.326,379.479 200.486,378.931C201.646,378.382 202.513,377.583 203.088,376.532C203.663,375.481 203.95,374.191 203.95,372.661C203.95,370.937 203.673,369.54 203.119,368.471C202.565,367.402 201.702,366.621 200.532,366.126C199.361,365.632 197.862,365.385 196.035,365.385L189.228,365.385L189.228,379.753L196.054,379.753ZM252.798,411.983L222.167,411.983L222.167,356.436L231.981,356.436L231.981,403.073L252.798,403.073L252.798,411.983ZM290.358,411.983L258.398,411.983L258.398,356.436L290.319,356.436L290.319,365.385L268.211,365.385L268.211,379.078L287.066,379.078L287.066,387.755L268.211,387.755L268.211,403.073L290.358,403.073L290.358,411.983ZM334.828,356.436L334.828,411.983L325.026,411.983L305.883,374.75L305.883,411.983L296.069,411.983L296.069,356.436L305.883,356.436L325.058,393.707L325.058,356.436L334.828,356.436ZM375.304,411.983L343.344,411.983L343.344,356.436L375.265,356.436L375.265,365.385L353.158,365.385L353.158,379.078L372.013,379.078L372.013,387.755L353.158,387.755L353.158,403.073L375.304,403.073L375.304,411.983ZM390.829,391.439L390.829,411.983L381.016,411.983L381.016,356.436L398.797,356.436C402.432,356.436 405.564,357.072 408.194,358.344C410.824,359.615 412.847,361.495 414.263,363.984C415.678,366.472 416.386,369.539 416.386,373.185C416.386,376.16 415.956,378.709 415.095,380.833C414.234,382.957 413.024,384.724 411.467,386.135C410.384,387.115 409.172,387.956 407.829,388.658L418.157,411.448L418.157,411.983L407.652,411.983L398.636,391.439L390.829,391.439ZM390.829,382.502L398.86,382.502C400.581,382.502 402.009,382.146 403.144,381.433C404.28,380.72 405.136,379.726 405.715,378.451C406.293,377.176 406.583,375.696 406.583,374.013C406.583,372.238 406.297,370.705 405.725,369.412C405.153,368.12 404.291,367.126 403.138,366.43C401.984,365.733 400.538,365.385 398.797,365.385L390.829,365.385L390.829,382.502ZM438.569,411.983L423.931,411.983L423.931,356.436L438.647,356.436C441.839,356.436 444.762,357.066 447.417,358.326C450.071,359.586 452.367,361.388 454.305,363.733C456.243,366.079 457.74,368.869 458.794,372.103C459.849,375.338 460.376,378.939 460.376,382.905L460.376,385.552C460.376,389.502 459.849,393.098 458.794,396.341C457.74,399.585 456.244,402.373 454.306,404.705C452.368,407.038 450.067,408.834 447.403,410.094C444.739,411.353 441.794,411.983 438.569,411.983ZM433.745,365.385L433.745,403.073L438.569,403.073C441.143,403.073 443.309,402.391 445.067,401.026C446.825,399.662 448.158,397.671 449.066,395.053C449.975,392.436 450.429,389.269 450.429,385.552L450.429,382.829C450.429,379.994 450.172,377.492 449.658,375.323C449.144,373.153 448.388,371.331 447.389,369.855C446.391,368.379 445.158,367.266 443.692,366.513C442.226,365.761 440.544,365.385 438.647,365.385L433.745,365.385Z" style="fill:#171717;stroke:#171717;stroke-width:3px;"/>
    <path d="M191.469,440.919L191.469,452.606C191.013,453.156 190.307,453.751 189.35,454.392C188.393,455.033 187.159,455.584 185.647,456.044C184.135,456.505 182.306,456.736 180.16,456.736C178.254,456.736 176.519,456.422 174.953,455.794C173.388,455.166 172.042,454.243 170.914,453.025C169.786,451.808 168.917,450.318 168.307,448.555C167.697,446.792 167.392,444.779 167.392,442.514L167.392,440.664C167.392,438.399 167.686,436.384 168.275,434.619C168.863,432.854 169.703,431.362 170.793,430.145C171.884,428.927 173.185,428.002 174.698,427.369C176.211,426.737 177.897,426.421 179.755,426.421C182.321,426.421 184.426,426.836 186.068,427.668C187.711,428.499 188.968,429.645 189.839,431.105C190.71,432.565 191.249,434.243 191.455,436.141L185.57,436.141C185.422,435.138 185.138,434.264 184.719,433.519C184.3,432.774 183.702,432.194 182.927,431.78C182.151,431.365 181.149,431.158 179.92,431.158C178.904,431.158 177.999,431.362 177.206,431.77C176.412,432.178 175.746,432.782 175.208,433.581C174.67,434.38 174.26,435.368 173.979,436.545C173.699,437.722 173.558,439.081 173.558,440.623L173.558,442.514C173.558,444.059 173.707,445.423 174.005,446.604C174.303,447.785 174.743,448.777 175.325,449.578C175.908,450.379 176.633,450.984 177.502,451.392C178.37,451.801 179.372,452.005 180.509,452.005C181.47,452.005 182.273,451.923 182.918,451.76C183.562,451.597 184.084,451.396 184.483,451.157C184.882,450.917 185.187,450.69 185.398,450.475L185.398,445.245L179.849,445.245L179.849,440.919L191.469,440.919ZM212.691,450.109L210.651,456.331L204.19,456.331L215.157,426.84L220.804,426.84L231.825,456.331L225.344,456.331L223.298,450.109L212.691,450.109ZM217.988,433.962L214.25,445.358L221.736,445.358L217.988,433.962ZM250.337,434.266L250.941,447.955L250.941,456.331L244.87,456.331L244.87,426.84L252.803,426.84L260.378,448.494L267.947,426.84L275.893,426.84L275.893,456.331L269.809,456.331L269.809,447.955L270.412,434.276L262.44,456.331L258.303,456.331L250.337,434.266ZM311.291,456.331L291.499,456.331L291.499,426.84L311.267,426.84L311.267,431.591L297.576,431.591L297.576,438.86L309.252,438.86L309.252,443.467L297.576,443.467L297.576,451.6L311.291,451.6L311.291,456.331ZM340.506,448.616C340.506,448.083 340.426,447.604 340.267,447.181C340.108,446.757 339.821,446.366 339.407,446.007C338.992,445.648 338.407,445.294 337.651,444.943C336.895,444.593 335.918,444.229 334.719,443.851C333.371,443.419 332.1,442.932 330.907,442.389C329.714,441.847 328.662,441.215 327.752,440.494C326.841,439.774 326.127,438.933 325.608,437.974C325.089,437.014 324.829,435.9 324.829,434.634C324.829,433.404 325.098,432.286 325.634,431.282C326.171,430.278 326.927,429.415 327.903,428.692C328.879,427.97 330.032,427.413 331.361,427.022C332.691,426.63 334.153,426.434 335.748,426.434C337.926,426.434 339.824,426.824 341.443,427.604C343.063,428.384 344.321,429.457 345.218,430.824C346.115,432.19 346.564,433.752 346.564,435.511L340.52,435.511C340.52,434.651 340.341,433.89 339.983,433.23C339.625,432.569 339.085,432.049 338.364,431.671C337.643,431.292 336.735,431.103 335.638,431.103C334.586,431.103 333.708,431.262 333.004,431.58C332.301,431.898 331.773,432.326 331.421,432.863C331.069,433.4 330.893,434 330.893,434.662C330.893,435.164 331.02,435.618 331.274,436.024C331.529,436.43 331.904,436.807 332.4,437.157C332.897,437.507 333.512,437.836 334.245,438.146C334.979,438.456 335.825,438.757 336.785,439.048C338.386,439.539 339.796,440.087 341.016,440.69C342.236,441.294 343.259,441.975 344.086,442.734C344.912,443.493 345.536,444.353 345.958,445.315C346.379,446.277 346.59,447.364 346.59,448.575C346.59,449.86 346.338,451.006 345.833,452.015C345.329,453.024 344.606,453.879 343.665,454.582C342.723,455.284 341.596,455.819 340.283,456.185C338.971,456.552 337.506,456.736 335.889,456.736C334.424,456.736 332.984,456.544 331.566,456.162C330.149,455.779 328.865,455.194 327.714,454.405C326.562,453.617 325.643,452.616 324.956,451.401C324.269,450.186 323.925,448.752 323.925,447.097L330.01,447.097C330.01,448.009 330.151,448.783 330.433,449.418C330.714,450.054 331.116,450.569 331.638,450.964C332.16,451.359 332.781,451.645 333.501,451.822C334.221,451.999 335.017,452.087 335.889,452.087C336.942,452.087 337.808,451.937 338.488,451.637C339.168,451.336 339.674,450.924 340.007,450.4C340.339,449.877 340.506,449.282 340.506,448.616Z" style="fill:#171717;stroke:#171717;stroke-width:1px;"/>
    <path d="M185.635,49.1C186.075,49.979 187.482,53.939 188.978,57.81C190.386,61.681 191.881,65.64 192.321,66.608C193.113,68.455 194.961,74.174 194.961,74.614C194.961,75.318 190.826,74.878 186.251,73.646C183.523,72.942 173.581,70.743 164.168,68.807C154.754,66.96 145.252,64.936 143.052,64.496C140.853,63.968 137.598,63.352 135.662,63.001L132.319,62.385L132.935,65.376C133.287,67.048 134.87,72.326 136.454,77.165C138.037,82.004 139.621,87.107 139.973,88.515L140.501,91.066L127.04,90.45C119.65,90.098 110.852,89.483 107.42,89.043C104.077,88.603 98.182,88.251 94.487,88.163L87.625,88.163L87.713,91.858C87.713,93.97 88.153,97.841 88.593,100.48C89.736,107.606 91.056,116.404 92.464,126.874C93.168,131.977 94.135,139.103 94.663,142.711C95.191,146.318 96.159,153.444 96.863,158.547C97.567,163.65 98.886,173.152 99.854,179.662C100.822,186.173 102.23,196.466 103.021,202.537C105.133,218.989 104.165,217.846 116.57,217.23C128.887,216.614 133.111,215.294 133.814,211.599C134.078,210.279 134.694,207.728 135.134,206.056C135.574,204.385 137.598,196.203 139.621,188.02C145.252,164.706 145.516,163.826 148.067,162.858C149.651,162.242 153.346,162.682 161.88,164.354C168.215,165.673 176.573,167.169 180.444,167.873C192.585,169.896 194.081,170.16 194.609,170.952C194.961,171.568 178.156,183.093 172.966,185.645C169.886,187.229 166.279,190.044 166.807,190.484C167.247,190.836 178.068,188.196 203.319,181.422C204.814,181.07 215.108,178.079 226.194,174.823C237.367,171.568 248.453,168.313 250.828,167.609C256.195,166.113 261.298,166.377 261.65,168.225C261.738,168.929 258.746,174.295 254.963,180.102C245.901,193.915 240.534,203.417 241.854,203.417C243.614,203.417 254.523,200.338 265.345,196.818C270.887,195.059 276.87,193.211 278.542,192.683C280.213,192.243 285.58,190.484 290.419,188.9C295.258,187.317 309.335,182.742 321.652,178.782C333.969,174.823 348.75,170.072 354.557,168.137C360.275,166.289 365.906,164.706 367.05,164.706C370.305,164.706 371.185,166.729 376.64,185.821C377.256,188.02 378.399,192.155 379.279,195.059C385.614,217.494 384.382,216.174 399.866,217.054C407.961,217.494 411.832,217.318 412.624,216.702C413.327,216.086 414.031,212.831 414.383,208.432C415.087,198.93 418.166,173.416 421.598,147.11C425.557,117.724 425.645,120.452 420.014,121.155C417.462,121.507 413.943,122.035 412.272,122.475C410.6,122.827 406.465,123.443 403.21,123.707C397.755,124.235 397.051,124.147 395.467,122.299C393.884,120.54 384.998,105.671 378.223,93.442C376.992,91.242 375.672,89.131 375.232,88.691C374.88,88.251 371.009,87.195 366.786,86.403C362.563,85.523 356.052,84.204 352.445,83.324C341.272,80.773 330.362,78.397 322.092,76.725C320.156,76.374 313.822,74.966 308.015,73.734C302.208,72.414 292.707,70.391 286.9,69.159C277.486,67.224 254.875,62.209 245.549,60.009C243.614,59.569 238.071,58.338 233.232,57.282C228.393,56.226 222.058,54.818 219.155,54.203C200.679,49.891 193.993,48.484 189.33,47.956C185.371,47.516 185.019,47.604 185.635,49.1Z" style="fill:#171717;fill-rule:nonzero;"/>
    <path d="M162.848,221.981C158.977,222.421 151.85,223.212 147.011,223.652C142.173,224.18 134.694,225.148 130.295,225.852C125.984,226.468 117.45,227.699 111.379,228.579C104.781,229.459 99.766,230.603 98.886,231.395C97.479,232.538 97.303,234.386 97.303,244.592C97.303,251.102 97.743,257.965 98.358,259.9C99.414,263.419 102.669,266.763 104.957,266.763C105.661,266.763 107.42,267.554 108.828,268.61C111.379,270.37 111.907,271.777 114.019,282.159C120.265,313.304 123.697,319.551 138.125,326.589C157.569,336.179 200.327,336.091 221.267,326.413C234.464,320.255 243.79,305.034 247.749,283.039C250.476,267.818 250.476,267.73 252.764,265.883C254.435,264.563 256.371,264.123 260.154,264.123C268.072,264.123 269.304,265.707 271.415,278.2C276.166,307.145 282.237,318.231 297.194,325.533C305.464,329.492 308.807,330.46 322.18,332.308C343.823,335.299 369.073,332.924 381.567,326.589C392.916,320.782 398.459,312.16 401.978,294.916C404.881,280.663 405.233,278.904 405.233,276.704C405.233,272.041 407.697,268.786 412.887,266.675C419.662,263.947 420.454,261.924 420.894,245.471C421.246,232.714 421.246,232.626 419.222,231.307C418.078,230.603 413.151,229.371 408.313,228.579C403.474,227.787 397.139,226.732 394.236,226.292C391.332,225.852 382.798,224.884 375.32,224.18C339.512,220.661 331.154,220.397 316.549,221.893C299.217,223.74 290.947,226.204 275.902,233.858C271.327,236.233 270.448,236.321 259.186,236.321L247.309,236.321L238.511,231.922C224.346,224.796 223.026,224.444 202.879,222.333C189.154,220.925 174.109,220.837 162.848,221.981ZM205.078,238.697C214.492,239.929 222.498,242.04 225.666,243.976C227.161,244.856 229.097,247.143 230.153,249.079C233.584,255.853 232.264,278.552 227.689,292.717C224.082,303.714 218.363,309.961 208.861,313.216C190.21,319.639 150.443,317.263 140.765,309.169C135.134,304.418 130.823,288.494 128.887,265.443C127.744,251.102 128.448,246.791 132.319,243.976C134.87,242.216 144.988,240.017 157.129,238.785C168.127,237.641 196.984,237.553 205.078,238.697ZM354.029,238.609C385.878,241.952 388.781,242.92 389.749,251.102C390.453,256.469 389.045,276.264 387.549,283.479C384.382,299.051 383.766,300.723 379.895,306.178C376.728,310.489 370.393,313.304 358.076,315.68C341.448,318.847 312.15,315.768 302.472,309.873C294.378,304.858 288.572,288.054 287.604,266.235C286.636,245.999 289.891,242.392 311.974,239.049C321.3,237.641 342.767,237.465 354.029,238.609Z" style="fill:#171717;fill-rule:nonzero;"/>
    <path d="M183.787,259.9C182.731,260.428 181.324,262.276 180.796,263.947C179.388,268.17 180.18,289.286 181.852,292.805C183.963,297.116 188.01,298.523 197.424,298.259C205.078,297.996 205.782,297.82 207.63,295.708C209.477,293.597 209.741,292.101 210.181,281.191C210.797,267.73 210.093,262.012 207.63,260.164C205.606,258.668 186.778,258.404 183.787,259.9Z" style="fill:#171717;fill-rule:nonzero;"/>
    <path d="M311.182,260.692C309.247,262.452 309.247,262.891 309.511,278.288C309.863,298.172 309.687,297.82 322.18,298.259C337.488,298.875 338.808,297.292 338.808,278.64C338.72,271.338 338.456,264.387 338.104,263.155C337.225,259.724 334.057,258.844 323.06,258.844C314.262,258.844 312.942,259.02 311.182,260.692Z" style="fill:#171717;fill-rule:nonzero;"/>
    <rect x="91.836" y="440.186" width="55.623" height="5.04" style="fill:#171717;"/>
    <rect x="91.836" y="440.186" width="55.623" height="5.04"/>
    <rect x="366.523" y="440.186" width="55.623" height="5.04" style="fill:#171717;"/>
    <rect x="366.523" y="440.186" width="55.623" height="5.04"/>
    <path d="M499.203,97.478L499.203,416.912C499.203,461.336 463.136,497.403 418.712,497.403L95.252,497.403C50.827,497.403 14.76,461.336 14.76,416.912L14.76,97.478C14.76,53.054 50.827,16.987 95.252,16.987L418.712,16.987C463.136,16.987 499.203,53.054 499.203,97.478ZM479.203,97.478C479.203,64.092 452.098,36.987 418.712,36.987L95.252,36.987C61.866,36.987 34.76,64.092 34.76,97.478L34.76,416.912C34.76,450.298 61.866,477.403 95.252,477.403L418.712,477.403C452.098,477.403 479.203,450.298 479.203,416.912L479.203,97.478Z" style="fill:#171717;stroke:#000;stroke-width:1px;"/>
</svg>

