<?xml version="1.0" encoding="UTF-8" standalone="no"?>
<!DOCTYPE svg PUBLIC "-//W3C//DTD SVG 1.1//EN" "http://www.w3.org/Graphics/SVG/1.1/DTD/svg11.dtd">
<svg width="100%" height="100%" viewBox="0 0 26 18" version="1.1" xmlns="http://www.w3.org/2000/svg" xmlns:xlink="http://www.w3.org/1999/xlink" xml:space="preserve" xmlns:serif="http://www.serif.com/" style="fill-rule:evenodd;clip-rule:evenodd;stroke-linejoin:round;stroke-miterlimit:2;">
    <g transform="matrix(1,0,0,1,-5349.64,-6774.89)">
        <g transform="matrix(0.0691376,0,0,0.0691376,5200.93,6687.18)">
            <path d="M2297.6,1452.11L2297.6,1342.08L2392.88,1397.09L2297.6,1452.11ZM2509.99,1308.81C2505.78,1293.03 2493.35,1280.6 2477.57,1276.39C2448.97,1268.72 2334.27,1268.72 2334.27,1268.72C2334.27,1268.72 2219.58,1268.72 2190.98,1276.39C2175.2,1280.6 2162.77,1293.03 2158.55,1308.81C2150.89,1337.42 2150.89,1397.09 2150.89,1397.09C2150.89,1397.09 2150.89,1456.77 2158.55,1485.37C2162.77,1501.15 2175.2,1513.58 2190.98,1517.8C2219.58,1525.46 2334.27,1525.46 2334.27,1525.46C2334.27,1525.46 2448.97,1525.46 2477.57,1517.8C2493.35,1513.58 2505.78,1501.15 2509.99,1485.37C2517.66,1456.77 2517.66,1397.09 2517.66,1397.09C2517.66,1397.09 2517.66,1337.42 2509.99,1308.81" style="fill:rgb(18,45,77);fill-rule:nonzero;"/>
        </g>
    </g>
</svg>
