<?xml version="1.0" encoding="UTF-8" standalone="no"?>
<!DOCTYPE svg PUBLIC "-//W3C//DTD SVG 1.1//EN" "http://www.w3.org/Graphics/SVG/1.1/DTD/svg11.dtd">
<svg width="100%" height="100%" viewBox="0 0 240 71" version="1.1" xmlns="http://www.w3.org/2000/svg" xmlns:xlink="http://www.w3.org/1999/xlink" xml:space="preserve" xmlns:serif="http://www.serif.com/" style="fill-rule:evenodd;clip-rule:evenodd;stroke-miterlimit:10;">
    <g transform="matrix(1,0,0,1,-5181.73,-6551.53)">
        <g transform="matrix(1,0,0,1,5181.84,6551.53)">
            <path d="M239.06,8.86L239.06,62.01C239.06,66.9 235.09,70.87 230.2,70.87L8.75,70.87C3.86,70.87 -0.11,66.9 -0.11,62.01L-0.11,8.86C-0.11,3.97 3.86,0 8.75,0L230.2,0C235.09,0 239.06,3.97 239.06,8.86Z"/>
        </g>
        <g transform="matrix(1,0,0,1,5181.84,6551.53)">
            <path d="M230.21,1.42C234.31,1.42 237.65,4.76 237.65,8.86L237.65,62.01C237.65,66.11 234.31,69.45 230.21,69.45L8.75,69.45C4.65,69.45 1.31,66.11 1.31,62.01L1.31,8.86C1.31,4.76 4.65,1.42 8.75,1.42L230.21,1.42M230.21,0L8.75,0C3.88,0 -0.11,3.99 -0.11,8.86L-0.11,62.01C-0.11,66.88 3.88,70.87 8.75,70.87L230.21,70.87C235.08,70.87 239.07,66.88 239.07,62.01L239.07,8.86C239.07,3.99 235.08,0 230.21,0Z" style="fill:rgb(166,166,166);fill-rule:nonzero;"/>
        </g>
        <g transform="matrix(1,0,0,1,5181.84,6551.53)">
            <path d="M83.9,18.15C83.9,19.63 83.46,20.82 82.58,21.7C81.58,22.75 80.28,23.27 78.68,23.27C77.08,23.27 75.84,22.74 74.77,21.68C73.7,20.62 73.16,19.3 73.16,17.72C73.16,16.14 73.7,14.83 74.77,13.76C75.84,12.7 77.15,12.16 78.68,12.16C79.44,12.16 80.17,12.31 80.86,12.6C81.55,12.9 82.11,13.29 82.52,13.79L81.59,14.73C80.89,13.89 79.92,13.47 78.68,13.47C77.56,13.47 76.59,13.86 75.78,14.65C74.97,15.44 74.56,16.46 74.56,17.71C74.56,18.96 74.97,19.99 75.78,20.77C76.6,21.56 77.56,21.95 78.68,21.95C79.87,21.95 80.86,21.55 81.65,20.76C82.16,20.24 82.46,19.53 82.54,18.61L78.68,18.61L78.68,17.33L83.83,17.33C83.88,17.61 83.9,17.87 83.9,18.13L83.9,18.15Z" style="fill:white;fill-rule:nonzero;stroke:white;stroke-width:0.2px;"/>
        </g>
        <g transform="matrix(1,0,0,1,5181.84,6551.53)">
            <path d="M92.07,13.71L87.23,13.71L87.23,17.08L91.6,17.08L91.6,18.36L87.23,18.36L87.23,21.73L92.07,21.73L92.07,23.04L85.86,23.04L85.86,12.41L92.07,12.41L92.07,13.72L92.07,13.71Z" style="fill:white;fill-rule:nonzero;stroke:white;stroke-width:0.2px;"/>
        </g>
        <g transform="matrix(1,0,0,1,5181.84,6551.53)">
            <path d="M97.83,23.03L96.46,23.03L96.46,13.71L93.49,13.71L93.49,12.4L100.79,12.4L100.79,13.71L97.82,13.71L97.82,23.03L97.83,23.03Z" style="fill:white;fill-rule:nonzero;stroke:white;stroke-width:0.2px;"/>
        </g>
        <g transform="matrix(1,0,0,1,5181.84,6551.53)">
            <rect x="106.08" y="12.4" width="1.36" height="10.63" style="fill:white;fill-rule:nonzero;stroke:white;stroke-width:0.2px;"/>
        </g>
        <g transform="matrix(1,0,0,1,5181.84,6551.53)">
            <path d="M113.51,23.03L112.14,23.03L112.14,13.71L109.17,13.71L109.17,12.4L116.47,12.4L116.47,13.71L113.5,13.71L113.5,23.03L113.51,23.03Z" style="fill:white;fill-rule:nonzero;stroke:white;stroke-width:0.2px;"/>
        </g>
        <g transform="matrix(1,0,0,1,5181.84,6551.53)">
            <path d="M130.3,21.66C129.25,22.74 127.96,23.27 126.4,23.27C124.84,23.27 123.55,22.73 122.5,21.66C121.45,20.59 120.93,19.27 120.93,17.72C120.93,16.17 121.45,14.85 122.5,13.78C123.54,12.7 124.84,12.17 126.4,12.17C127.96,12.17 129.24,12.71 130.29,13.79C131.34,14.87 131.86,16.18 131.86,17.72C131.86,19.26 131.34,20.59 130.29,21.66L130.3,21.66ZM123.52,20.77C124.31,21.57 125.27,21.96 126.41,21.96C127.55,21.96 128.51,21.56 129.3,20.77C130.09,19.97 130.48,18.96 130.48,17.72C130.48,16.48 130.08,15.46 129.3,14.67C128.52,13.87 127.55,13.48 126.41,13.48C125.27,13.48 124.31,13.88 123.52,14.67C122.74,15.47 122.34,16.48 122.34,17.72C122.34,18.96 122.74,19.98 123.52,20.77Z" style="fill:white;fill-rule:nonzero;stroke:white;stroke-width:0.2px;"/>
        </g>
        <g transform="matrix(1,0,0,1,5181.84,6551.53)">
            <path d="M133.79,23.03L133.79,12.4L135.45,12.4L140.62,20.67L140.68,20.67L140.62,18.62L140.62,12.4L141.99,12.4L141.99,23.03L140.56,23.03L135.15,14.36L135.09,14.36L135.15,16.41L135.15,23.03L133.78,23.03L133.79,23.03Z" style="fill:white;fill-rule:nonzero;stroke:white;stroke-width:0.2px;"/>
        </g>
        <g transform="matrix(1,0,0,1,5181.84,6551.53)">
            <path d="M120.61,38.54C116.44,38.54 113.05,41.71 113.05,46.07C113.05,50.43 116.45,53.6 120.61,53.6C124.77,53.6 128.17,50.4 128.17,46.07C128.17,41.74 124.77,38.54 120.61,38.54ZM120.61,50.64C118.33,50.64 116.36,48.76 116.36,46.07C116.36,43.38 118.33,41.5 120.61,41.5C122.89,41.5 124.86,43.35 124.86,46.07C124.86,48.79 122.89,50.64 120.61,50.64ZM104.11,38.54C99.94,38.54 96.55,41.71 96.55,46.07C96.55,50.43 99.95,53.6 104.11,53.6C108.27,53.6 111.67,50.4 111.67,46.07C111.67,41.74 108.27,38.54 104.11,38.54ZM104.11,50.64C101.83,50.64 99.86,48.76 99.86,46.07C99.86,43.38 101.83,41.5 104.11,41.5C106.39,41.5 108.36,43.35 108.36,46.07C108.36,48.79 106.39,50.64 104.11,50.64ZM84.48,40.84L84.48,44.05L92.13,44.05C91.9,45.85 91.3,47.16 90.39,48.08C89.28,49.19 87.54,50.42 84.48,50.42C79.77,50.42 76.09,46.62 76.09,41.91C76.09,37.2 79.77,33.4 84.48,33.4C87.02,33.4 88.88,34.4 90.24,35.68L92.5,33.42C90.59,31.59 88.05,30.2 84.48,30.2C78.03,30.2 72.61,35.45 72.61,41.9C72.61,48.35 78.03,53.6 84.48,53.6C87.96,53.6 90.59,52.46 92.64,50.32C94.75,48.21 95.41,45.24 95.41,42.84C95.41,42.1 95.35,41.41 95.24,40.84L84.48,40.84ZM164.75,43.33C164.12,41.65 162.21,38.53 158.3,38.53C154.39,38.53 151.19,41.58 151.19,46.06C151.19,50.28 154.39,53.59 158.67,53.59C162.12,53.59 164.12,51.48 164.95,50.25L162.38,48.54C161.52,49.8 160.35,50.62 158.67,50.62C156.99,50.62 155.79,49.85 155.02,48.34L165.1,44.17L164.76,43.31L164.75,43.33ZM154.47,45.84C154.38,42.93 156.73,41.44 158.41,41.44C159.72,41.44 160.84,42.1 161.21,43.04L154.47,45.84ZM146.28,53.15L149.59,53.15L149.59,31L146.28,31L146.28,53.15ZM140.86,40.22L140.75,40.22C140.01,39.34 138.58,38.54 136.78,38.54C133.01,38.54 129.56,41.85 129.56,46.1C129.56,50.35 133.01,53.61 136.78,53.61C138.58,53.61 140,52.81 140.75,51.9L140.86,51.9L140.86,52.98C140.86,55.86 139.32,57.4 136.83,57.4C134.8,57.4 133.55,55.94 133.03,54.72L130.15,55.92C130.98,57.92 133.18,60.37 136.83,60.37C140.71,60.37 143.99,58.09 143.99,52.52L143.99,38.99L140.85,38.99L140.85,40.22L140.86,40.22ZM137.06,50.64C134.78,50.64 132.86,48.73 132.86,46.1C132.86,43.47 134.77,41.5 137.06,41.5C139.35,41.5 141.09,43.44 141.09,46.1C141.09,48.76 139.32,50.64 137.06,50.64ZM180.27,31L172.34,31L172.34,53.15L175.65,53.15L175.65,44.76L180.27,44.76C183.93,44.76 187.54,42.11 187.54,37.88C187.54,33.65 183.94,31 180.27,31ZM180.34,41.68L175.64,41.68L175.64,34.09L180.34,34.09C182.81,34.09 184.21,36.14 184.21,37.89C184.21,39.64 182.81,41.69 180.34,41.69L180.34,41.68ZM200.77,38.5C198.38,38.5 195.9,39.55 194.87,41.89L197.81,43.12C198.44,41.89 199.6,41.5 200.83,41.5C202.54,41.5 204.28,42.53 204.31,44.35L204.31,44.58C203.71,44.24 202.43,43.72 200.86,43.72C197.7,43.72 194.48,45.46 194.48,48.71C194.48,51.67 197.07,53.58 199.98,53.58C202.2,53.58 203.43,52.58 204.2,51.42L204.31,51.42L204.31,53.13L207.5,53.13L207.5,44.64C207.5,40.71 204.56,38.51 200.77,38.51L200.77,38.5ZM200.38,50.63C199.3,50.63 197.79,50.09 197.79,48.75C197.79,47.04 199.67,46.38 201.29,46.38C202.74,46.38 203.43,46.69 204.31,47.12C204.05,49.17 202.29,50.62 200.38,50.62L200.38,50.63ZM219.12,38.98L215.33,48.58L215.22,48.58L211.29,38.98L207.73,38.98L213.63,52.4L210.27,59.87L213.72,59.87L222.81,38.98L219.12,38.98ZM189.35,53.15L192.66,53.15L192.66,31L189.35,31L189.35,53.15Z" style="fill:white;fill-rule:nonzero;"/>
        </g>
        <g transform="matrix(1,0,0,1,5181.84,6551.53)">
            <path d="M36.6,34.41L17.74,54.43L17.74,54.44C18.32,56.61 20.3,58.21 22.66,58.21C23.6,58.21 24.49,57.95 25.24,57.51L25.3,57.47L46.53,45.22L36.59,34.4L36.6,34.41Z" style="fill:rgb(234,67,53);fill-rule:nonzero;"/>
        </g>
        <g transform="matrix(1,0,0,1,5181.84,6551.53)">
            <path d="M55.68,31L55.66,31L46.49,25.67L36.16,34.86L46.52,45.22L55.64,39.96C57.24,39.1 58.32,37.41 58.32,35.47C58.32,33.53 57.25,31.86 55.67,31L55.68,31Z" style="fill:rgb(251,188,4);fill-rule:nonzero;"/>
        </g>
        <g transform="matrix(1,0,0,1,5181.84,6551.53)">
            <path d="M17.73,16.44C17.62,16.86 17.56,17.3 17.56,17.75L17.56,53.13C17.56,53.58 17.62,54.02 17.73,54.44L37.24,34.93L17.73,16.44Z" style="fill:rgb(66,133,244);fill-rule:nonzero;"/>
        </g>
        <g transform="matrix(1,0,0,1,5181.84,6551.53)">
            <path d="M36.74,35.43L46.5,25.67L25.29,13.37C24.52,12.91 23.62,12.64 22.66,12.64C20.3,12.64 18.32,14.24 17.74,16.42C17.16,18.6 36.74,35.42 36.74,35.42L36.74,35.43Z" style="fill:rgb(52,168,83);fill-rule:nonzero;"/>
        </g>
    </g>
</svg>
