<?xml version="1.0" encoding="UTF-8" standalone="no"?>
<!DOCTYPE svg PUBLIC "-//W3C//DTD SVG 1.1//EN" "http://www.w3.org/Graphics/SVG/1.1/DTD/svg11.dtd">
<svg width="100%" height="100%" viewBox="0 0 28 28" version="1.1" xmlns="http://www.w3.org/2000/svg" xmlns:xlink="http://www.w3.org/1999/xlink" xml:space="preserve" xmlns:serif="http://www.serif.com/" style="fill-rule:evenodd;clip-rule:evenodd;stroke-linejoin:round;stroke-miterlimit:2;">
    <g transform="matrix(1,0,0,1,-5287.93,-6655.33)">
        <g transform="matrix(1.20303,0,0,1.20303,3084,6187.93)">
            <path d="M1852.09,405.777L1854.59,405.777C1853.8,407.363 1852.61,408.605 1850.99,409.504C1849.14,410.535 1846.88,411.051 1844.21,411.051C1841.64,411.051 1839.41,410.615 1837.54,409.744C1835.66,408.873 1834.27,407.588 1833.35,405.889C1832.44,404.189 1831.98,402.34 1831.98,400.34C1831.98,398.145 1832.5,396.1 1833.54,394.205C1834.58,392.311 1836,390.889 1837.8,389.939C1839.61,388.99 1841.67,388.516 1843.99,388.516C1845.96,388.516 1847.71,388.898 1849.24,389.664C1850.77,390.43 1851.94,391.518 1852.75,392.928C1853.56,394.338 1853.96,395.879 1853.96,397.551C1853.96,399.543 1853.35,401.344 1852.12,402.953C1850.59,404.984 1848.61,406 1846.21,406C1845.56,406 1845.07,405.887 1844.74,405.66C1844.41,405.434 1844.19,405.102 1844.09,404.664C1843.16,405.555 1842.1,406 1840.9,406C1839.6,406 1838.53,405.553 1837.67,404.658C1836.81,403.764 1836.39,402.574 1836.39,401.09C1836.39,399.254 1836.9,397.578 1837.93,396.063C1839.18,394.219 1840.79,393.297 1842.74,393.297C1844.13,393.297 1845.16,393.828 1845.82,394.891L1846.11,393.59L1849.21,393.59L1847.44,401.992C1847.33,402.523 1847.27,402.867 1847.27,403.023C1847.27,403.219 1847.32,403.365 1847.41,403.463C1847.5,403.561 1847.61,403.609 1847.73,403.609C1848.11,403.609 1848.59,403.383 1849.18,402.93C1849.98,402.336 1850.62,401.539 1851.12,400.539C1851.61,399.539 1851.86,398.504 1851.86,397.434C1851.86,395.512 1851.16,393.904 1849.77,392.611C1848.38,391.318 1846.44,390.672 1843.94,390.672C1841.83,390.672 1840.03,391.104 1838.56,391.967C1837.09,392.83 1835.98,394.045 1835.23,395.611C1834.49,397.178 1834.11,398.809 1834.11,400.504C1834.11,402.152 1834.53,403.652 1835.36,405.004C1836.19,406.355 1837.36,407.342 1838.87,407.963C1840.37,408.584 1842.09,408.895 1844.03,408.895C1845.89,408.895 1847.5,408.635 1848.84,408.115C1850.19,407.596 1851.27,406.816 1852.09,405.777ZM1839.42,400.961C1839.42,401.953 1839.62,402.684 1840.03,403.152C1840.43,403.621 1840.92,403.855 1841.52,403.855C1841.96,403.855 1842.38,403.746 1842.77,403.527C1843.07,403.371 1843.36,403.125 1843.65,402.789C1844.07,402.313 1844.42,401.617 1844.72,400.703C1845.03,399.789 1845.17,398.938 1845.17,398.148C1845.17,397.266 1844.97,396.588 1844.56,396.115C1844.15,395.643 1843.63,395.406 1843.01,395.406C1842.34,395.406 1841.71,395.666 1841.14,396.186C1840.57,396.705 1840.14,397.445 1839.86,398.406C1839.57,399.367 1839.42,400.219 1839.42,400.961Z" style="fill:rgb(18,45,77);fill-rule:nonzero;"/>
        </g>
    </g>
</svg>
