<?xml version="1.0" encoding="UTF-8" standalone="no"?>
<!DOCTYPE svg PUBLIC "-//W3C//DTD SVG 1.1//EN" "http://www.w3.org/Graphics/SVG/1.1/DTD/svg11.dtd">
<svg width="100%" height="100%" viewBox="0 0 23 24" version="1.1" xmlns="http://www.w3.org/2000/svg" xmlns:xlink="http://www.w3.org/1999/xlink" xml:space="preserve" xmlns:serif="http://www.serif.com/" style="fill-rule:evenodd;clip-rule:evenodd;stroke-linejoin:round;stroke-miterlimit:2;">
    <g transform="matrix(1,0,0,1,-5229.09,-6771.84)">
        <g transform="matrix(0.0683818,0,0,0.0683818,5080.88,6742.55)">
            <path d="M2328.4,623.781L2315.35,604.68L2214,456.398L2256.96,456.398L2339.6,576.211L2352.7,595.199L2454.35,742.57L2409.6,742.57L2328.4,623.781ZM2366.61,578.828L2353.53,559.859L2267.85,435.648L2174.68,435.648L2301.41,621.051L2314.47,640.16L2398.65,763.32L2493.87,763.32L2366.61,578.828" style="fill:rgb(18,45,77);fill-rule:nonzero;stroke:rgb(18,45,77);stroke-width:14.62px;"/>
        </g>
        <g transform="matrix(0.0683818,0,0,0.0683818,5080.88,6742.55)">
            <path d="M2315.35,604.68L2328.4,623.781L2314.47,640.16L2209.76,763.32L2180.21,763.32L2301.41,621.051L2315.35,604.68" style="fill:rgb(18,45,77);fill-rule:nonzero;stroke:rgb(18,45,77);stroke-width:14.62px;"/>
        </g>
        <g transform="matrix(0.0683818,0,0,0.0683818,5080.88,6742.55)">
            <path d="M2488.34,435.648L2366.61,578.828L2352.7,595.199L2339.6,576.211L2353.53,559.859L2459.34,435.648L2488.34,435.648" style="fill:rgb(18,45,77);fill-rule:nonzero;stroke:rgb(18,45,77);stroke-width:14.62px;"/>
        </g>
    </g>
</svg>
